<?xml version="1.0" encoding="UTF-8"?>
<svg width="142px" height="117px" viewBox="0 0 142 117" version="1.1" xmlns="http://www.w3.org/2000/svg" xmlns:xlink="http://www.w3.org/1999/xlink">
    <title>Massive-icon</title>
    <defs>
        <linearGradient x1="19.1764363%" y1="52.917256%" x2="77.3246923%" y2="50%" id="linearGradient-1">
            <stop stop-color="#FF9964" offset="28.8159321%"></stop>
            <stop stop-color="#FF6E63" offset="100%"></stop>
        </linearGradient>
    </defs>
    <g id="Massive-icon" stroke="none" stroke-width="1" fill="none" fill-rule="evenodd">
        <g id="Group-Copy" transform="translate(20.000000, 36.000000)" fill="url(#linearGradient-1)">
            <path d="M4.97646842,36.1376038 L32.713451,7.93163613 C37.8951179,2.66235605 46.3672844,2.59133155 51.6365645,7.77299848 C51.6472805,7.7835363 51.6579787,7.79409216 51.6686592,7.80466602 L72.2916822,28.2219286 C72.4840083,28.4123358 72.794275,28.4107803 72.9846822,28.2184542 C73.1664771,28.0348272 73.1744492,27.7415921 73.0029,27.5483589 L64.566061,18.0450926 C63.5965562,16.9530411 63.5279564,15.3300291 64.4018527,14.1600627 L68.2337117,9.02999529 C70.6181137,5.8377739 75.1388601,5.18290684 78.3310815,7.56730877 C78.7354365,7.86933819 79.1069818,8.21296491 79.439614,8.59254422 L103.75059,36.3347201 C105.455309,38.2800397 105.260264,41.2389807 103.314944,42.9436998 C102.460853,43.6921551 101.363907,44.1047833 100.228277,44.1047833 L8.31577488,44.1047833 C5.72920656,44.1047833 3.63237865,42.0079554 3.63237865,39.4213871 C3.63237865,38.1928724 4.11509012,37.0135465 4.97646842,36.1376038 Z" id="Path-2-Copy-6"></path>
        </g>
    </g>
</svg>