<svg width="16" height="12" viewBox="0 0 16 12" fill="none" xmlns="http://www.w3.org/2000/svg">
<path d="M13.196 1.00613C12.2254 0.539877 11.1916 0.196319 10.1026 0C9.96844 0.245399 9.81061 0.580777 9.70802 0.850716C8.55587 0.670757 7.41161 0.670757 6.28313 0.850716C6.17265 0.580777 6.01482 0.245399 5.88067 0C4.79165 0.196319 3.75787 0.539877 2.78722 1.00613C0.830146 4.06544 0.301419 7.05113 0.561836 9.98773C1.86392 10.9939 3.11866 11.5992 4.35762 12C4.66539 11.5665 4.9337 11.1002 5.17044 10.6176C4.72063 10.4458 4.29449 10.2249 3.89203 9.97137C4.00251 9.88957 4.10509 9.79959 4.20768 9.71779C6.6777 10.9121 9.3529 10.9121 11.7914 9.71779C11.8939 9.80777 11.9965 9.88957 12.107 9.97137C11.7046 10.2249 11.2705 10.4376 10.8286 10.6176C11.0653 11.1002 11.3337 11.5665 11.6414 12C12.8804 11.5992 14.143 10.9939 15.4372 9.98773C15.745 6.57669 14.9085 3.62372 13.2118 1.00613H13.196ZM5.50188 8.18814C4.76008 8.18814 4.15244 7.47648 4.15244 6.60123C4.15244 5.72597 4.7443 5.01432 5.50188 5.01432C6.25946 5.01432 6.85921 5.72597 6.85132 6.60123C6.85132 7.4683 6.25946 8.18814 5.50188 8.18814ZM10.4814 8.18814C9.73958 8.18814 9.13194 7.47648 9.13194 6.60123C9.13194 5.72597 9.7238 5.01432 10.4814 5.01432C11.239 5.01432 11.8387 5.72597 11.8308 6.60123C11.8308 7.4683 11.239 8.18814 10.4814 8.18814Z" fill="white"/>
</svg>
