<svg width="16" height="16" viewBox="0 0 16 16" fill="none" xmlns="http://www.w3.org/2000/svg">
<path d="M5.51735 12.8708C5.51735 12.9407 5.45175 12.9907 5.35803 12.9907C5.26431 12.9907 5.18934 12.9907 5.18934 12.8708C5.18934 12.7509 5.26431 12.7509 5.34866 12.7509C5.43301 12.7509 5.51735 12.8008 5.51735 12.8708ZM4.58018 12.7209C4.58018 12.7908 4.58017 12.8708 4.71138 12.8907C4.74494 12.9079 4.78352 12.9102 4.81866 12.8971C4.8538 12.884 4.88263 12.8565 4.89881 12.8208C4.89881 12.7509 4.89882 12.6809 4.76761 12.6509C4.63641 12.621 4.59892 12.6509 4.58018 12.7209ZM5.91097 12.6709C5.82662 12.6709 5.77039 12.7509 5.77976 12.8308C5.78913 12.9107 5.86411 12.9407 5.95782 12.9207C6.05154 12.9007 6.0984 12.8308 6.08903 12.7608C6.07966 12.6909 6.00468 12.6609 5.91097 12.6709ZM7.90715 0.000628497C6.91877 -0.00928973 5.9387 0.193795 5.02575 0.597696C4.11279 1.0016 3.28578 1.59799 2.59434 2.35108C1.9029 3.10417 1.36128 3.99844 1.00198 4.98023C0.642684 5.96201 0.473118 7.01107 0.503458 8.06445C0.477297 9.79002 0.957266 11.4812 1.87633 12.9018C2.79539 14.3224 4.10764 15.4015 5.62981 15.9884C6.01406 16.0583 6.15463 15.7985 6.15463 15.5887C6.15463 15.3788 6.15463 14.2497 6.15463 13.5902C6.15463 13.5902 4.03661 14.0898 3.58677 12.591C3.58677 12.591 3.24938 11.5917 2.75268 11.3819C2.75268 11.3819 2.05917 10.8623 2.79954 10.8723C3.04203 10.9072 3.27348 11.0022 3.4753 11.1497C3.67712 11.2972 3.84369 11.4931 3.96164 11.7216C4.0597 11.9266 4.196 12.108 4.36218 12.2548C4.52835 12.4015 4.72091 12.5105 4.92801 12.5751C5.13512 12.6396 5.35242 12.6584 5.56657 12.6302C5.78073 12.602 5.98722 12.5275 6.17338 12.4111C6.20884 11.9939 6.37757 11.6024 6.65134 11.302C4.96442 11.0921 3.25876 10.8323 3.25876 7.64477C3.24084 7.28468 3.2951 6.92465 3.41791 6.58866C3.54073 6.25268 3.72928 5.94846 3.97101 5.69626C3.74295 4.9648 3.76956 4.17023 4.04598 3.45798C4.68326 3.23815 6.13589 4.3473 6.13589 4.3473C7.37687 3.97412 8.69047 3.97412 9.93145 4.3473C9.93145 4.3473 11.3841 3.23815 12.0214 3.45798C12.3038 4.16883 12.3304 4.96574 12.0963 5.69626C12.3466 5.94499 12.5451 6.24692 12.6791 6.58255C12.8131 6.91818 12.8795 7.28004 12.8742 7.64477C12.8742 10.8423 11.0936 11.0921 9.40663 11.302C9.57618 11.5047 9.70518 11.7422 9.78574 11.9999C9.86631 12.2576 9.89676 12.5301 9.87522 12.8008V15.5687C9.87461 15.6362 9.88928 15.7028 9.91797 15.763C9.94666 15.8231 9.98853 15.875 10.04 15.9142C10.0915 15.9534 10.1511 15.9789 10.2138 15.9883C10.2765 15.9977 10.3404 15.9909 10.4 15.9684C11.9194 15.3866 13.229 14.3107 14.1438 12.8924C15.0586 11.4742 15.5324 9.78534 15.4983 8.06445C15.5071 7.00034 15.3165 5.94507 14.9378 4.96052C14.5591 3.97596 13.9998 3.08194 13.2928 2.33087C12.5857 1.57981 11.7452 0.986815 10.8204 0.586671C9.89556 0.186527 8.90513 -0.0127148 7.90715 0.000628497ZM3.44619 11.4019C3.44619 11.4019 3.44619 11.5118 3.44619 11.5718C3.45664 11.5829 3.46905 11.5918 3.48272 11.5979C3.49639 11.6039 3.51105 11.607 3.52585 11.607C3.54065 11.607 3.55531 11.6039 3.56898 11.5979C3.58265 11.5918 3.59506 11.5829 3.60551 11.5718C3.60551 11.5718 3.60551 11.4618 3.60551 11.3919C3.60551 11.3219 3.48368 11.3619 3.44619 11.4019ZM3.11818 11.1321C3.11818 11.1321 3.11818 11.232 3.18378 11.262C3.19169 11.2724 3.20168 11.2808 3.21304 11.2866C3.22439 11.2924 3.23681 11.2954 3.24938 11.2954C3.26196 11.2954 3.27438 11.2924 3.28573 11.2866C3.29709 11.2808 3.30708 11.2724 3.31499 11.262C3.31499 11.262 3.31499 11.1621 3.24938 11.1321C3.18378 11.1021 3.13692 11.1021 3.11818 11.1321ZM4.05536 12.3112C4.05536 12.3112 4.05536 12.4511 4.05536 12.521C4.05536 12.591 4.21468 12.601 4.25216 12.521C4.28965 12.4411 4.25216 12.3811 4.25216 12.3112C4.25216 12.2412 4.13033 12.2612 4.09284 12.3112H4.05536ZM3.7086 11.8216C3.7086 11.8216 3.7086 11.9415 3.7086 12.0214C3.7086 12.1014 3.83981 12.1313 3.88666 12.1014C3.9104 12.0723 3.92347 12.035 3.92347 11.9964C3.92347 11.9579 3.9104 11.9206 3.88666 11.8915C3.83981 11.8116 3.76483 11.7816 3.7086 11.8216Z" fill="white"/>
</svg>
