<svg width="8" height="16" viewBox="0 0 8 16" fill="none" xmlns="http://www.w3.org/2000/svg">
<path d="M5.75 0.5C4.7875 0.5 4 1.34375 4 2.375C4 3.40625 4.7875 4.25 5.75 4.25C6.7125 4.25 7.5 3.40625 7.5 2.375C7.5 1.34375 6.7125 0.5 5.75 0.5ZM3.125 5.1875C1.6725 5.1875 0.5 6.44375 0.5 8H2.25C2.25 7.475 2.635 7.0625 3.125 7.0625C3.615 7.0625 4 7.475 4 8C4 8.525 2.25 11.075 2.25 12.6875C2.25 14.3 3.4225 15.5 4.875 15.5C6.3275 15.5 7.5 14.2437 7.5 12.6875H5.75C5.75 13.2125 5.365 13.625 4.875 13.625C4.385 13.625 4 13.2125 4 12.6875C4 12.0125 5.75 9.2375 5.75 8C5.75 6.48125 4.5775 5.1875 3.125 5.1875Z" fill="white"/>
</svg>
