<svg width="373" height="174" viewBox="0 0 373 174" fill="none" xmlns="http://www.w3.org/2000/svg">
<rect width="373" height="172.436" transform="translate(0 0.781982)" fill="white"/>
<g filter="url(#filter0_d_260_302)">
<g clip-path="url(#clip0_260_302)">
<g clip-path="url(#clip1_260_302)">
<g filter="url(#filter1_i_260_302)">
<rect x="-1261" y="59.782" width="1440" height="45" fill="#DEDEDE"/>
</g>
<g clip-path="url(#clip2_260_302)">
<rect x="-1127" y="64.782" width="1201" height="28" rx="14" fill="#F1F3F4"/>
<path fill-rule="evenodd" clip-rule="evenodd" d="M61.3621 76.6221L57.969 76.3276L56.644 73.2079C56.4056 72.64 55.5924 72.64 55.354 73.2079L54.029 76.3346L50.6428 76.6221C50.0259 76.6711 49.7735 77.4423 50.2432 77.8489L52.8161 80.0783L52.045 83.3873C51.9048 83.9902 52.5568 84.467 53.0896 84.1445L55.999 82.3918L58.9084 84.1515C59.4412 84.474 60.0932 83.9973 59.953 83.3943L59.1818 80.0783L61.7547 77.8489C62.2244 77.4423 61.979 76.6711 61.3621 76.6221ZM55.999 81.0808L53.363 82.6722L54.064 79.6717L51.7365 77.6526L54.8072 77.3862L55.999 74.5609L57.1978 77.3932L60.2685 77.6596L57.9409 79.6787L58.642 82.6793L55.999 81.0808Z" fill="#5F6368" fill-opacity="0.4"/>
</g>
<rect x="121" y="72" width="14" height="14" fill="#B7B9BC"/>
<rect x="123" y="74" width="7" height="10" fill="white"/>
<path d="M104 80.3064C104 81.3729 103.163 82.2103 102.096 82.2103H100.953V85.2575C100.953 86.095 100.267 86.782 99.4283 86.782H96.5332V85.6386C96.5332 84.4953 95.6189 83.581 94.4756 83.581C93.3322 83.581 92.4179 84.4953 92.4179 85.6386V86.782H89.5244C88.687 86.782 88 86.0966 88 85.2575V82.3624H89.1433C90.2867 82.3624 91.201 81.4481 91.201 80.3048C91.201 79.1614 90.2867 78.2488 89.1433 78.2488H88V75.3536C88 74.5162 88.6853 73.8292 89.5244 73.8292H92.5717V72.6859C92.5717 71.6194 93.4091 70.782 94.4756 70.782C95.542 70.782 96.3794 71.6194 96.3794 72.6859V73.8292H99.4267C100.264 73.8292 100.951 74.5145 100.951 75.3536V78.4009H102.094C103.161 78.4009 104 79.2383 104 80.3064Z" fill="#4C4E51"/>
</g>
<g clip-path="url(#clip3_260_302)">
<path d="M-1246 25.782C-1246 21.3637 -1242.42 17.782 -1238 17.782H186C190.418 17.782 194 21.3637 194 25.782V59.782H-1246V25.782Z" fill="#D6D8DD"/>
</g>
</g>
</g>
<path d="M103.023 87.0607C103.365 89.707 103.709 92.3529 104.054 94.9988L105.869 93.2984L107.039 95.3023L108.209 94.634L107.041 92.6336L109.446 91.9424C107.304 90.3174 105.164 88.689 103.023 87.0607Z" fill="black" fill-opacity="0.5"/>
<g filter="url(#filter2_d_260_302)">
<rect x="226.1" y="49.782" width="121.8" height="48" rx="2.4" fill="#2A2A2D"/>
<path d="M250.375 83.0286L251.414 82.8432L250.472 81.7929L251.288 81.3389L250.256 80.5725L250.92 78.9832H249.469L249.85 77.4223L248.295 78.2171L248.722 76.1596L247.151 77.4508L246.984 75.4643L245.797 77.2515L245.056 74.8677L244.316 77.2515L243.129 75.4636L242.963 77.45L241.392 76.1589L241.817 78.2164L240.262 77.4223L240.644 78.9832H239.194L239.857 80.5725L238.826 81.3389L239.64 81.7929L238.699 82.8432L239.738 83.0286L239.024 84.3806L239.945 84.7232L239.682 85.5935L240.429 85.4295L240.504 86.5022L241.124 86.187L241.181 87.1707L241.675 87.0067C241.675 87.0067 242.549 87.9118 244.307 87.4514C244.408 87.4261 244.502 87.3779 244.582 87.3107C244.662 87.2435 244.725 87.159 244.767 87.0636C244.858 86.8502 244.828 86.5883 244.242 86.4922C243.208 86.3229 241.779 86.5214 241.26 85.2284C241.257 85.2194 241.256 85.2094 241.258 85.1999C241.26 85.1903 241.265 85.1817 241.273 85.1753C241.28 85.1688 241.289 85.1647 241.299 85.1637C241.309 85.1626 241.319 85.1646 241.327 85.1694C241.965 85.5291 243.459 85.8539 243.584 85.174C243.717 84.4492 243.078 84.2098 242.718 84.0116C242.357 83.8134 240.719 83.284 240.794 82.3102C240.869 81.3364 241.936 81.5968 242.178 81.7907C242.395 81.9331 244.548 83.2524 244.548 83.2524C244.548 83.2524 243.767 84.2842 245.056 84.2842C246.345 84.2842 245.566 83.2524 245.566 83.2524C245.566 83.2524 247.717 81.9324 247.936 81.7907C248.177 81.5968 249.244 81.3371 249.319 82.3102C249.395 83.2833 247.755 83.8117 247.395 84.0116C247.034 84.2116 246.395 84.4492 246.529 85.174C246.654 85.8536 248.147 85.5298 248.785 85.1694C248.794 85.1646 248.804 85.1625 248.813 85.1636C248.823 85.1646 248.833 85.1687 248.84 85.1752C248.847 85.1818 248.852 85.1905 248.855 85.2001C248.857 85.2097 248.856 85.2197 248.852 85.2288C248.334 86.5214 246.904 86.3229 245.871 86.4922C245.285 86.5883 245.254 86.848 245.346 87.0636C245.387 87.1589 245.451 87.2434 245.53 87.3107C245.61 87.3779 245.704 87.426 245.805 87.4514C247.563 87.9118 248.439 87.0067 248.439 87.0067L248.933 87.1707L248.989 86.187L249.609 86.5022L249.684 85.4298L250.431 85.5938L250.168 84.7232L251.088 84.3827L250.375 83.0286ZM243.681 81.652C243.541 81.652 243.405 81.6106 243.288 81.5332C243.172 81.4557 243.082 81.3457 243.028 81.2169C242.975 81.0881 242.961 80.9464 242.988 80.8096C243.015 80.6729 243.082 80.5473 243.181 80.4488C243.28 80.3502 243.406 80.2831 243.543 80.2559C243.681 80.2287 243.823 80.2426 243.952 80.296C244.081 80.3493 244.192 80.4397 244.269 80.5556C244.347 80.6715 244.388 80.8078 244.388 80.9472C244.388 81.1341 244.314 81.3134 244.181 81.4455C244.049 81.5777 243.869 81.652 243.681 81.652ZM246.431 81.652C246.292 81.652 246.155 81.6106 246.039 81.5332C245.922 81.4557 245.832 81.3457 245.778 81.2169C245.725 81.0881 245.711 80.9464 245.738 80.8096C245.765 80.6729 245.833 80.5473 245.931 80.4488C246.03 80.3502 246.156 80.2831 246.294 80.2559C246.431 80.2287 246.573 80.2426 246.702 80.296C246.831 80.3493 246.942 80.4397 247.019 80.5556C247.097 80.6715 247.139 80.8078 247.139 80.9472C247.139 81.0397 247.12 81.1314 247.085 81.2169C247.049 81.3025 246.997 81.3802 246.932 81.4456C246.866 81.5111 246.788 81.563 246.702 81.5984C246.616 81.6338 246.524 81.652 246.431 81.652Z" fill="#AB9AFF"/>
<path d="M260.268 85.782H259.223L261.572 79.2548H262.71L265.059 85.782H264.013L262.168 80.4404H262.117L260.268 85.782ZM260.444 83.2259H263.835V84.0546H260.444V83.2259ZM265.925 85.782V80.8866H266.846V81.6643H266.897C266.986 81.4008 267.143 81.1936 267.368 81.0428C267.596 80.8898 267.853 80.8133 268.14 80.8133C268.199 80.8133 268.269 80.8154 268.35 80.8197C268.433 80.8239 268.498 80.8293 268.545 80.8356V81.7471C268.506 81.7365 268.438 81.7248 268.341 81.7121C268.243 81.6972 268.145 81.6898 268.047 81.6898C267.822 81.6898 267.621 81.7376 267.445 81.8332C267.271 81.9267 267.133 82.0573 267.031 82.2252C266.929 82.3909 266.878 82.58 266.878 82.7925V85.782H265.925ZM274.867 81.3774H273.873C273.834 81.165 273.763 80.978 273.659 80.8165C273.555 80.655 273.427 80.518 273.277 80.4054C273.126 80.2928 272.957 80.2078 272.77 80.1504C272.585 80.093 272.388 80.0644 272.18 80.0644C271.804 80.0644 271.467 80.1589 271.17 80.348C270.875 80.5371 270.641 80.8144 270.469 81.1798C270.299 81.5453 270.214 81.9915 270.214 82.5184C270.214 83.0496 270.299 83.4979 270.469 83.8634C270.641 84.2288 270.876 84.505 271.173 84.692C271.471 84.879 271.805 84.9725 272.177 84.9725C272.383 84.9725 272.579 84.9448 272.763 84.8896C272.95 84.8322 273.119 84.7483 273.27 84.6378C273.421 84.5273 273.548 84.3924 273.653 84.2331C273.759 84.0716 273.832 83.8867 273.873 83.6785L274.867 83.6817C274.814 84.0025 274.711 84.2979 274.558 84.5677C274.407 84.8354 274.212 85.067 273.975 85.2625C273.739 85.4558 273.469 85.6056 273.165 85.7119C272.861 85.8181 272.53 85.8712 272.171 85.8712C271.605 85.8712 271.102 85.7374 270.66 85.4696C270.218 85.1998 269.87 84.8142 269.615 84.3127C269.362 83.8113 269.235 83.2132 269.235 82.5184C269.235 81.8215 269.363 81.2234 269.618 80.7241C269.873 80.2226 270.221 79.8381 270.663 79.5704C271.105 79.3005 271.608 79.1656 272.171 79.1656C272.517 79.1656 272.84 79.2155 273.139 79.3154C273.441 79.4131 273.712 79.5576 273.952 79.7488C274.192 79.9379 274.391 80.1695 274.548 80.4436C274.705 80.7156 274.812 81.0269 274.867 81.3774ZM278.031 85.8808C277.572 85.8808 277.171 85.7756 276.829 85.5653C276.487 85.3549 276.222 85.0606 276.033 84.6824C275.843 84.3042 275.749 83.8623 275.749 83.3566C275.749 82.8488 275.843 82.4047 276.033 82.0244C276.222 81.6441 276.487 81.3488 276.829 81.1384C277.171 80.9281 277.572 80.8229 278.031 80.8229C278.49 80.8229 278.89 80.9281 279.232 81.1384C279.574 81.3488 279.84 81.6441 280.029 82.0244C280.218 82.4047 280.313 82.8488 280.313 83.3566C280.313 83.8623 280.218 84.3042 280.029 84.6824C279.84 85.0606 279.574 85.3549 279.232 85.5653C278.89 85.7756 278.49 85.8808 278.031 85.8808ZM278.034 85.0808C278.332 85.0808 278.578 85.0022 278.773 84.845C278.969 84.6878 279.113 84.4785 279.207 84.2171C279.303 83.9558 279.35 83.6679 279.35 83.3534C279.35 83.0411 279.303 82.7543 279.207 82.4929C279.113 82.2294 278.969 82.018 278.773 81.8587C278.578 81.6993 278.332 81.6197 278.034 81.6197C277.734 81.6197 277.486 81.6993 277.288 81.8587C277.093 82.018 276.947 82.2294 276.852 82.4929C276.758 82.7543 276.711 83.0411 276.711 83.3534C276.711 83.6679 276.758 83.9558 276.852 84.2171C276.947 84.4785 277.093 84.6878 277.288 84.845C277.486 85.0022 277.734 85.0808 278.034 85.0808ZM282.329 82.8754V85.782H281.377V80.8866H282.291V81.6834H282.352C282.464 81.4242 282.641 81.216 282.881 81.0587C283.123 80.9015 283.428 80.8229 283.795 80.8229C284.129 80.8229 284.421 80.893 284.672 81.0332C284.923 81.1713 285.117 81.3774 285.255 81.6515C285.393 81.9256 285.462 82.2645 285.462 82.6682V85.782H284.509V82.7829C284.509 82.4281 284.417 82.1508 284.232 81.9511C284.047 81.7493 283.793 81.6483 283.47 81.6483C283.249 81.6483 283.053 81.6961 282.881 81.7918C282.711 81.8874 282.576 82.0276 282.476 82.2125C282.378 82.3952 282.329 82.6161 282.329 82.8754ZM287.693 82.8754V85.782H286.74V80.8866H287.655V81.6834H287.716C287.828 81.4242 288.005 81.216 288.245 81.0587C288.487 80.9015 288.792 80.8229 289.159 80.8229C289.493 80.8229 289.785 80.893 290.036 81.0332C290.287 81.1713 290.481 81.3774 290.619 81.6515C290.757 81.9256 290.826 82.2645 290.826 82.6682V85.782H289.873V82.7829C289.873 82.4281 289.781 82.1508 289.596 81.9511C289.411 81.7493 289.157 81.6483 288.834 81.6483C288.613 81.6483 288.417 81.6961 288.245 81.7918C288.075 81.8874 287.94 82.0276 287.84 82.2125C287.742 82.3952 287.693 82.6161 287.693 82.8754ZM294.214 85.8808C293.732 85.8808 293.316 85.7777 292.968 85.5716C292.622 85.3634 292.354 85.0713 292.165 84.6952C291.978 84.317 291.884 83.874 291.884 83.3662C291.884 82.8647 291.978 82.4228 292.165 82.0403C292.354 81.6579 292.617 81.3594 292.955 81.1448C293.295 80.9302 293.692 80.8229 294.147 80.8229C294.423 80.8229 294.691 80.8686 294.95 80.9599C295.21 81.0513 295.442 81.1947 295.648 81.3902C295.854 81.5857 296.017 81.8396 296.136 82.1519C296.255 82.4621 296.314 82.8392 296.314 83.2833V83.6211H292.423V82.9072H295.381C295.381 82.6565 295.33 82.4345 295.228 82.2411C295.126 82.0457 294.982 81.8916 294.797 81.779C294.615 81.6664 294.4 81.6101 294.154 81.6101C293.886 81.6101 293.652 81.676 293.452 81.8077C293.255 81.9373 293.102 82.1073 292.993 82.3176C292.887 82.5258 292.834 82.7521 292.834 82.9965V83.5542C292.834 83.8814 292.891 84.1598 293.006 84.3892C293.123 84.6187 293.286 84.794 293.494 84.9151C293.702 85.0341 293.945 85.0936 294.224 85.0936C294.404 85.0936 294.569 85.0681 294.718 85.0171C294.866 84.964 294.995 84.8853 295.103 84.7812C295.212 84.6771 295.294 84.5486 295.352 84.3956L296.254 84.5581C296.182 84.8237 296.052 85.0564 295.865 85.2561C295.68 85.4537 295.447 85.6078 295.167 85.7182C294.889 85.8266 294.571 85.8808 294.214 85.8808ZM299.434 85.8808C298.96 85.8808 298.552 85.7735 298.21 85.5589C297.87 85.3422 297.609 85.0436 297.426 84.6633C297.243 84.283 297.152 83.8474 297.152 83.3566C297.152 82.8594 297.245 82.4207 297.432 82.0403C297.619 81.6579 297.883 81.3594 298.223 81.1448C298.563 80.9302 298.963 80.8229 299.424 80.8229C299.796 80.8229 300.127 80.8919 300.419 81.03C300.71 81.166 300.944 81.3572 301.123 81.6037C301.303 81.8502 301.411 82.1381 301.445 82.4674H300.517C300.466 82.2379 300.349 82.0403 300.167 81.8746C299.986 81.7089 299.744 81.626 299.44 81.626C299.174 81.626 298.942 81.6961 298.742 81.8364C298.545 81.9745 298.39 82.1721 298.28 82.4292C298.17 82.6841 298.114 82.9858 298.114 83.3343C298.114 83.6913 298.168 83.9993 298.277 84.2586C298.385 84.5178 298.538 84.7186 298.736 84.8609C298.935 85.0033 299.17 85.0745 299.44 85.0745C299.621 85.0745 299.784 85.0415 299.931 84.9757C300.08 84.9077 300.204 84.811 300.304 84.6856C300.406 84.5603 300.477 84.4094 300.517 84.2331H301.445C301.411 84.5496 301.308 84.8322 301.136 85.0808C300.964 85.3294 300.733 85.5249 300.444 85.6672C300.157 85.8096 299.82 85.8808 299.434 85.8808ZM304.749 80.8866V81.6515H302.075V80.8866H304.749ZM302.792 79.7138H303.745V84.3446C303.745 84.5295 303.773 84.6686 303.828 84.7621C303.883 84.8535 303.954 84.9162 304.041 84.9502C304.131 84.982 304.227 84.998 304.331 84.998C304.408 84.998 304.475 84.9926 304.532 84.982C304.59 84.9714 304.634 84.9629 304.666 84.9565L304.838 85.7437C304.783 85.765 304.704 85.7862 304.602 85.8075C304.5 85.8309 304.373 85.8436 304.22 85.8457C303.969 85.85 303.735 85.8054 303.519 85.7119C303.302 85.6184 303.127 85.4739 302.993 85.2784C302.859 85.0829 302.792 84.8375 302.792 84.5422V79.7138Z" fill="#E2E3E6"/>
<path d="M238.06 63.3821V57.7094H241.749V58.5708H239.087V60.1108H241.558V60.9723H239.087V62.5206H241.771V63.3821H238.06ZM243.573 59.1275L244.432 60.6981L245.304 59.1275H246.365L245.083 61.2548L246.387 63.3821H245.332L244.432 61.8503L243.54 63.3821H242.476L243.772 61.2548L242.509 59.1275H243.573ZM249.265 59.1275V59.9031H246.819V59.1275H249.265ZM247.423 58.1082H248.426V62.1024C248.426 62.2372 248.446 62.3406 248.487 62.4126C248.529 62.4828 248.585 62.5308 248.653 62.5567C248.721 62.5825 248.797 62.5954 248.88 62.5954C248.943 62.5954 249 62.5908 249.052 62.5816C249.105 62.5723 249.146 62.564 249.174 62.5567L249.343 63.3405C249.289 63.359 249.212 63.3793 249.113 63.4015C249.015 63.4236 248.895 63.4366 248.753 63.4402C248.502 63.4476 248.275 63.4098 248.074 63.3267C247.873 63.2417 247.713 63.1106 247.595 62.9334C247.479 62.7561 247.421 62.5345 247.423 62.2686V58.1082ZM251.941 63.4652C251.515 63.4652 251.147 63.3765 250.836 63.1993C250.528 63.0201 250.291 62.7672 250.124 62.4403C249.958 62.1116 249.875 61.7248 249.875 61.2797C249.875 60.8421 249.958 60.458 250.124 60.1275C250.292 59.7951 250.527 59.5366 250.828 59.3519C251.129 59.1654 251.483 59.0721 251.889 59.0721C252.151 59.0721 252.399 59.1146 252.631 59.1996C252.866 59.2826 253.073 59.4119 253.252 59.5873C253.433 59.7628 253.575 59.9862 253.678 60.2576C253.782 60.5273 253.833 60.8486 253.833 61.2216V61.529H250.346V60.8532H252.872C252.87 60.6611 252.829 60.4903 252.748 60.3407C252.666 60.1893 252.553 60.0702 252.407 59.9834C252.263 59.8966 252.095 59.8532 251.903 59.8532C251.698 59.8532 251.518 59.9031 251.363 60.0028C251.207 60.1007 251.087 60.2299 251 60.3906C250.915 60.5494 250.871 60.7239 250.87 60.9141V61.5041C250.87 61.7515 250.915 61.9639 251.005 62.1412C251.096 62.3166 251.222 62.4514 251.385 62.5456C251.547 62.6379 251.737 62.6841 251.955 62.6841C252.101 62.6841 252.233 62.6638 252.351 62.6231C252.47 62.5807 252.572 62.5188 252.659 62.4375C252.746 62.3563 252.811 62.2557 252.856 62.1356L253.792 62.2409C253.733 62.4883 253.62 62.7044 253.454 62.889C253.29 63.0719 253.079 63.214 252.822 63.3156C252.566 63.4153 252.272 63.4652 251.941 63.4652ZM255.684 60.8892V63.3821H254.682V59.1275H255.64V59.8505H255.69C255.788 59.6123 255.944 59.423 256.158 59.2826C256.374 59.1423 256.641 59.0721 256.958 59.0721C257.252 59.0721 257.508 59.1349 257.726 59.2605C257.945 59.3861 258.115 59.5679 258.235 59.8062C258.357 60.0444 258.417 60.3334 258.415 60.6731V63.3821H257.413V60.8282C257.413 60.5439 257.339 60.3214 257.191 60.1607C257.045 60 256.843 59.9197 256.585 59.9197C256.409 59.9197 256.253 59.9585 256.116 60.0361C255.982 60.1118 255.875 60.2216 255.798 60.3657C255.722 60.5097 255.684 60.6842 255.684 60.8892ZM262.797 60.2521L261.883 60.3518C261.857 60.2595 261.812 60.1727 261.748 60.0915C261.685 60.0102 261.6 59.9447 261.493 59.8948C261.386 59.8449 261.255 59.82 261.099 59.82C260.891 59.82 260.715 59.8652 260.573 59.9557C260.433 60.0462 260.364 60.1635 260.365 60.3075C260.364 60.4312 260.409 60.5319 260.501 60.6094C260.595 60.687 260.75 60.7507 260.966 60.8005L261.692 60.9557C262.095 61.0424 262.394 61.18 262.59 61.3684C262.787 61.5567 262.887 61.8032 262.889 62.1079C262.887 62.3757 262.808 62.6121 262.653 62.817C262.5 63.0201 262.287 63.179 262.013 63.2934C261.74 63.4079 261.426 63.4652 261.072 63.4652C260.551 63.4652 260.132 63.3562 259.814 63.1383C259.497 62.9186 259.307 62.613 259.246 62.2215L260.224 62.1273C260.268 62.3194 260.363 62.4643 260.507 62.5622C260.651 62.6601 260.838 62.709 261.069 62.709C261.307 62.709 261.498 62.6601 261.642 62.5622C261.788 62.4643 261.861 62.3434 261.861 62.1993C261.861 62.0775 261.814 61.9768 261.72 61.8974C261.628 61.818 261.484 61.7571 261.288 61.7146L260.562 61.5623C260.154 61.4773 259.852 61.3342 259.656 61.1329C259.461 60.9298 259.364 60.6731 259.365 60.3629C259.364 60.1007 259.435 59.8736 259.579 59.6815C259.725 59.4876 259.927 59.338 260.185 59.2328C260.446 59.1257 260.746 59.0721 261.086 59.0721C261.584 59.0721 261.977 59.1783 262.263 59.3907C262.551 59.603 262.729 59.8902 262.797 60.2521ZM263.716 63.3821V59.1275H264.718V63.3821H263.716ZM264.22 58.5237C264.061 58.5237 263.924 58.4711 263.81 58.3658C263.695 58.2587 263.638 58.1304 263.638 57.9808C263.638 57.8294 263.695 57.701 263.81 57.5958C263.924 57.4887 264.061 57.4351 264.22 57.4351C264.38 57.4351 264.517 57.4887 264.63 57.5958C264.744 57.701 264.801 57.8294 264.801 57.9808C264.801 58.1304 264.744 58.2587 264.63 58.3658C264.517 58.4711 264.38 58.5237 264.22 58.5237ZM267.605 63.4652C267.19 63.4652 266.83 63.3738 266.525 63.191C266.22 63.0081 265.984 62.7524 265.816 62.4237C265.65 62.095 265.567 61.7109 265.567 61.2714C265.567 60.8319 265.65 60.4469 265.816 60.1164C265.984 59.7858 266.22 59.5292 266.525 59.3464C266.83 59.1635 267.19 59.0721 267.605 59.0721C268.021 59.0721 268.381 59.1635 268.685 59.3464C268.99 59.5292 269.226 59.7858 269.392 60.1164C269.56 60.4469 269.644 60.8319 269.644 61.2714C269.644 61.7109 269.56 62.095 269.392 62.4237C269.226 62.7524 268.99 63.0081 268.685 63.191C268.381 63.3738 268.021 63.4652 267.605 63.4652ZM267.611 62.6619C267.836 62.6619 268.024 62.6 268.176 62.4763C268.327 62.3508 268.44 62.1827 268.514 61.9722C268.589 61.7617 268.627 61.5272 268.627 61.2687C268.627 61.0083 268.589 60.7728 268.514 60.5623C268.44 60.35 268.327 60.181 268.176 60.0554C268.024 59.9299 267.836 59.8671 267.611 59.8671C267.38 59.8671 267.188 59.9299 267.035 60.0554C266.883 60.181 266.77 60.35 266.694 60.5623C266.62 60.7728 266.583 61.0083 266.583 61.2687C266.583 61.5272 266.62 61.7617 266.694 61.9722C266.77 62.1827 266.883 62.3508 267.035 62.4763C267.188 62.6 267.38 62.6619 267.611 62.6619ZM271.498 60.8892V63.3821H270.495V59.1275H271.453V59.8505H271.503C271.601 59.6123 271.757 59.423 271.971 59.2826C272.187 59.1423 272.454 59.0721 272.772 59.0721C273.065 59.0721 273.321 59.1349 273.539 59.2605C273.759 59.3861 273.929 59.5679 274.049 59.8062C274.171 60.0444 274.231 60.3334 274.229 60.6731V63.3821H273.226V60.8282C273.226 60.5439 273.152 60.3214 273.004 60.1607C272.859 60 272.656 59.9197 272.398 59.9197C272.222 59.9197 272.066 59.9585 271.93 60.0361C271.795 60.1118 271.689 60.2216 271.611 60.3657C271.535 60.5097 271.498 60.6842 271.498 60.8892ZM278.611 60.2521L277.697 60.3518C277.671 60.2595 277.625 60.1727 277.561 60.0915C277.498 60.0102 277.413 59.9447 277.306 59.8948C277.199 59.8449 277.068 59.82 276.913 59.82C276.704 59.82 276.529 59.8652 276.386 59.9557C276.246 60.0462 276.177 60.1635 276.179 60.3075C276.177 60.4312 276.222 60.5319 276.314 60.6094C276.409 60.687 276.564 60.7507 276.78 60.8005L277.505 60.9557C277.908 61.0424 278.207 61.18 278.403 61.3684C278.6 61.5567 278.7 61.8032 278.702 62.1079C278.7 62.3757 278.622 62.6121 278.467 62.817C278.313 63.0201 278.1 63.179 277.827 63.2934C277.553 63.4079 277.24 63.4652 276.885 63.4652C276.364 63.4652 275.945 63.3562 275.627 63.1383C275.31 62.9186 275.121 62.613 275.06 62.2215L276.037 62.1273C276.082 62.3194 276.176 62.4643 276.32 62.5622C276.464 62.6601 276.651 62.709 276.882 62.709C277.12 62.709 277.312 62.6601 277.456 62.5622C277.601 62.4643 277.674 62.3434 277.674 62.1993C277.674 62.0775 277.627 61.9768 277.533 61.8974C277.441 61.818 277.297 61.7571 277.101 61.7146L276.375 61.5623C275.967 61.4773 275.665 61.3342 275.47 61.1329C275.274 60.9298 275.177 60.6731 275.179 60.3629C275.177 60.1007 275.248 59.8736 275.392 59.6815C275.538 59.4876 275.74 59.338 275.999 59.2328C276.259 59.1257 276.559 59.0721 276.899 59.0721C277.397 59.0721 277.79 59.1783 278.076 59.3907C278.364 59.603 278.542 59.8902 278.611 60.2521Z" fill="#E2E3E6"/>
<path fill-rule="evenodd" clip-rule="evenodd" d="M332.5 79.982V76.982H333C333.275 76.982 333.5 76.712 333.5 76.382C333.5 76.052 333.275 75.782 333 75.782H328C327.725 75.782 327.5 76.052 327.5 76.382C327.5 76.712 327.725 76.982 328 76.982H328.5V79.982C328.5 80.978 327.83 81.782 327 81.782V82.982H329.985V87.182L330.485 87.782L330.985 87.182V82.982H334V81.782C333.17 81.782 332.5 80.978 332.5 79.982Z" fill="#93B3F3"/>
<path d="M333.023 87.0607C333.365 89.707 333.709 92.3529 334.054 94.9988L335.869 93.2984L337.039 95.3023L338.209 94.634L337.041 92.6336L339.446 91.9424C337.304 90.3174 335.164 88.689 333.023 87.0607Z" fill="white" fill-opacity="0.5"/>
</g>
<path d="M203.354 77.6355C203.549 77.4403 203.549 77.1237 203.354 76.9284L200.172 73.7464C199.976 73.5512 199.66 73.5512 199.464 73.7464C199.269 73.9417 199.269 74.2583 199.464 74.4536L202.293 77.282L199.464 80.1104C199.269 80.3057 199.269 80.6223 199.464 80.8175C199.66 81.0128 199.976 81.0128 200.172 80.8175L203.354 77.6355ZM157 77.782H203V76.782H157V77.782Z" fill="#AB9AFF"/>
<path d="M20.9303 128.782V121.324L19.3043 122.308V121.114L20.9303 120.142H22.0163V128.782H20.9303ZM25.7977 128.782V127.606H26.9737V128.782H25.7977ZM36.392 128.962C35.532 128.962 34.802 128.772 34.202 128.392C33.602 128.012 33.144 127.484 32.828 126.808C32.516 126.132 32.36 125.35 32.36 124.462C32.36 123.574 32.516 122.792 32.828 122.116C33.144 121.44 33.602 120.912 34.202 120.532C34.802 120.152 35.532 119.962 36.392 119.962C37.392 119.962 38.214 120.216 38.858 120.724C39.506 121.232 39.952 121.916 40.196 122.776L39.11 123.064C38.934 122.42 38.62 121.912 38.168 121.54C37.716 121.168 37.124 120.982 36.392 120.982C35.748 120.982 35.212 121.128 34.784 121.42C34.356 121.712 34.034 122.12 33.818 122.644C33.602 123.164 33.492 123.77 33.488 124.462C33.484 125.15 33.59 125.756 33.806 126.28C34.022 126.8 34.346 127.208 34.778 127.504C35.21 127.796 35.748 127.942 36.392 127.942C37.124 127.942 37.716 127.756 38.168 127.384C38.62 127.008 38.934 126.5 39.11 125.86L40.196 126.148C39.952 127.004 39.506 127.688 38.858 128.2C38.214 128.708 37.392 128.962 36.392 128.962ZM41.6319 128.782V119.962H42.6999V128.782H41.6319ZM44.6202 121.156V120.052H45.6882V121.156H44.6202ZM44.6202 128.782V122.302H45.6882V128.782H44.6202ZM50.2184 128.962C49.5624 128.962 49.0044 128.816 48.5444 128.524C48.0884 128.228 47.7404 127.822 47.5004 127.306C47.2604 126.79 47.1364 126.202 47.1284 125.542C47.1364 124.866 47.2624 124.272 47.5064 123.76C47.7544 123.244 48.1084 122.842 48.5684 122.554C49.0284 122.266 49.5824 122.122 50.2304 122.122C50.9144 122.122 51.5024 122.29 51.9944 122.626C52.4904 122.962 52.8224 123.422 52.9904 124.006L51.9344 124.324C51.7984 123.948 51.5764 123.656 51.2684 123.448C50.9644 123.24 50.6144 123.136 50.2184 123.136C49.7744 123.136 49.4084 123.24 49.1204 123.448C48.8324 123.652 48.6184 123.936 48.4784 124.3C48.3384 124.66 48.2664 125.074 48.2624 125.542C48.2704 126.262 48.4364 126.844 48.7604 127.288C49.0884 127.728 49.5744 127.948 50.2184 127.948C50.6424 127.948 50.9944 127.852 51.2744 127.66C51.5544 127.464 51.7664 127.182 51.9104 126.814L52.9904 127.096C52.7664 127.7 52.4164 128.162 51.9404 128.482C51.4644 128.802 50.8904 128.962 50.2184 128.962ZM54.209 128.782L54.215 120.142H55.295V125.422L58.013 122.302H59.399L56.537 125.542L59.735 128.782H58.241L55.295 125.662V128.782H54.209ZM66.3525 128.782C65.9685 128.858 65.5885 128.888 65.2125 128.872C64.8405 128.86 64.5085 128.786 64.2165 128.65C63.9245 128.51 63.7025 128.294 63.5505 128.002C63.4225 127.746 63.3525 127.488 63.3405 127.228C63.3325 126.964 63.3285 126.666 63.3285 126.334V120.502H64.3965V126.286C64.3965 126.55 64.3985 126.776 64.4025 126.964C64.4105 127.152 64.4525 127.314 64.5285 127.45C64.6725 127.706 64.9005 127.856 65.2125 127.9C65.5285 127.944 65.9085 127.932 66.3525 127.864V128.782ZM62.0145 123.184V122.302H66.3525V123.184H62.0145ZM72.2821 128.782V125.536C72.2821 125.228 72.2541 124.932 72.1981 124.648C72.1461 124.364 72.0521 124.11 71.9161 123.886C71.7841 123.658 71.6041 123.478 71.3761 123.346C71.1521 123.214 70.8681 123.148 70.5241 123.148C70.2561 123.148 70.0121 123.194 69.7921 123.286C69.5761 123.374 69.3901 123.51 69.2341 123.694C69.0781 123.878 68.9561 124.11 68.8681 124.39C68.7841 124.666 68.7421 124.992 68.7421 125.368L68.0401 125.152C68.0401 124.524 68.1521 123.986 68.3761 123.538C68.6041 123.086 68.9221 122.74 69.3301 122.5C69.7421 122.256 70.2261 122.134 70.7821 122.134C71.2021 122.134 71.5601 122.2 71.8561 122.332C72.1521 122.464 72.3981 122.64 72.5941 122.86C72.7901 123.076 72.9441 123.32 73.0561 123.592C73.1681 123.86 73.2461 124.134 73.2901 124.414C73.3381 124.69 73.3621 124.952 73.3621 125.2V128.782H72.2821ZM67.6621 128.782V120.142H68.6221V124.912H68.7421V128.782H67.6621ZM77.73 128.962C77.094 128.962 76.538 128.822 76.062 128.542C75.59 128.258 75.222 127.864 74.958 127.36C74.694 126.852 74.562 126.26 74.562 125.584C74.562 124.876 74.692 124.264 74.952 123.748C75.212 123.228 75.574 122.828 76.038 122.548C76.506 122.264 77.054 122.122 77.682 122.122C78.334 122.122 78.888 122.272 79.344 122.572C79.804 122.872 80.148 123.3 80.376 123.856C80.608 124.412 80.708 125.074 80.676 125.842H79.596V125.458C79.584 124.662 79.422 124.068 79.11 123.676C78.798 123.28 78.334 123.082 77.718 123.082C77.058 123.082 76.556 123.294 76.212 123.718C75.868 124.142 75.696 124.75 75.696 125.542C75.696 126.306 75.868 126.898 76.212 127.318C76.556 127.738 77.046 127.948 77.682 127.948C78.11 127.948 78.482 127.85 78.798 127.654C79.114 127.458 79.362 127.176 79.542 126.808L80.568 127.162C80.316 127.734 79.936 128.178 79.428 128.494C78.924 128.806 78.358 128.962 77.73 128.962ZM75.336 125.842V124.984H80.124V125.842H75.336ZM87.2222 128.962C86.5862 128.962 86.0302 128.822 85.5542 128.542C85.0822 128.258 84.7142 127.864 84.4502 127.36C84.1862 126.852 84.0542 126.26 84.0542 125.584C84.0542 124.876 84.1842 124.264 84.4442 123.748C84.7042 123.228 85.0662 122.828 85.5302 122.548C85.9982 122.264 86.5462 122.122 87.1742 122.122C87.8262 122.122 88.3802 122.272 88.8362 122.572C89.2962 122.872 89.6402 123.3 89.8682 123.856C90.1002 124.412 90.2002 125.074 90.1682 125.842H89.0882V125.458C89.0762 124.662 88.9142 124.068 88.6022 123.676C88.2902 123.28 87.8262 123.082 87.2102 123.082C86.5502 123.082 86.0482 123.294 85.7042 123.718C85.3602 124.142 85.1882 124.75 85.1882 125.542C85.1882 126.306 85.3602 126.898 85.7042 127.318C86.0482 127.738 86.5382 127.948 87.1742 127.948C87.6022 127.948 87.9742 127.85 88.2902 127.654C88.6062 127.458 88.8542 127.176 89.0342 126.808L90.0602 127.162C89.8082 127.734 89.4282 128.178 88.9202 128.494C88.4162 128.806 87.8502 128.962 87.2222 128.962ZM84.8282 125.842V124.984H89.6162V125.842H84.8282ZM90.5497 128.782L93.0277 125.506L90.6037 122.302H91.8757L93.6517 124.678L95.4097 122.302H96.6817L94.2577 125.506L96.7417 128.782H95.4637L93.6517 126.334L91.8277 128.782H90.5497ZM101.321 128.782C100.937 128.858 100.557 128.888 100.181 128.872C99.8093 128.86 99.4773 128.786 99.1853 128.65C98.8933 128.51 98.6713 128.294 98.5193 128.002C98.3913 127.746 98.3213 127.488 98.3093 127.228C98.3013 126.964 98.2973 126.666 98.2973 126.334V120.502H99.3653V126.286C99.3653 126.55 99.3673 126.776 99.3713 126.964C99.3793 127.152 99.4213 127.314 99.4973 127.45C99.6413 127.706 99.8693 127.856 100.181 127.9C100.497 127.944 100.877 127.932 101.321 127.864V128.782ZM96.9833 123.184V122.302H101.321V123.184H96.9833ZM105.175 128.962C104.539 128.962 103.983 128.822 103.507 128.542C103.035 128.258 102.667 127.864 102.403 127.36C102.139 126.852 102.007 126.26 102.007 125.584C102.007 124.876 102.137 124.264 102.397 123.748C102.657 123.228 103.019 122.828 103.483 122.548C103.951 122.264 104.499 122.122 105.127 122.122C105.779 122.122 106.333 122.272 106.789 122.572C107.249 122.872 107.593 123.3 107.821 123.856C108.053 124.412 108.153 125.074 108.121 125.842H107.041V125.458C107.029 124.662 106.867 124.068 106.555 123.676C106.243 123.28 105.779 123.082 105.163 123.082C104.503 123.082 104.001 123.294 103.657 123.718C103.313 124.142 103.141 124.75 103.141 125.542C103.141 126.306 103.313 126.898 103.657 127.318C104.001 127.738 104.491 127.948 105.127 127.948C105.555 127.948 105.927 127.85 106.243 127.654C106.559 127.458 106.807 127.176 106.987 126.808L108.013 127.162C107.761 127.734 107.381 128.178 106.873 128.494C106.369 128.806 105.803 128.962 105.175 128.962ZM102.781 125.842V124.984H107.569V125.842H102.781ZM113.895 128.782V125.536C113.895 125.228 113.867 124.932 113.811 124.648C113.759 124.364 113.665 124.11 113.529 123.886C113.397 123.658 113.217 123.478 112.989 123.346C112.765 123.214 112.481 123.148 112.137 123.148C111.869 123.148 111.625 123.194 111.405 123.286C111.189 123.374 111.003 123.51 110.847 123.694C110.691 123.878 110.569 124.11 110.481 124.39C110.397 124.666 110.355 124.992 110.355 125.368L109.653 125.152C109.653 124.524 109.765 123.986 109.989 123.538C110.217 123.086 110.535 122.74 110.943 122.5C111.355 122.256 111.839 122.134 112.395 122.134C112.815 122.134 113.173 122.2 113.469 122.332C113.765 122.464 114.011 122.64 114.207 122.86C114.403 123.076 114.557 123.32 114.669 123.592C114.781 123.86 114.859 124.134 114.903 124.414C114.951 124.69 114.975 124.952 114.975 125.2V128.782H113.895ZM109.275 128.782V122.302H110.235V124.036H110.355V128.782H109.275ZM118.983 128.956C118.211 128.956 117.577 128.788 117.081 128.452C116.589 128.112 116.287 127.638 116.175 127.03L117.267 126.856C117.355 127.208 117.557 127.488 117.873 127.696C118.189 127.9 118.581 128.002 119.049 128.002C119.493 128.002 119.841 127.91 120.093 127.726C120.345 127.542 120.471 127.292 120.471 126.976C120.471 126.792 120.429 126.644 120.345 126.532C120.261 126.416 120.087 126.308 119.823 126.208C119.563 126.108 119.169 125.988 118.641 125.848C118.069 125.696 117.619 125.538 117.291 125.374C116.963 125.21 116.729 125.02 116.589 124.804C116.449 124.588 116.379 124.326 116.379 124.018C116.379 123.638 116.483 123.306 116.691 123.022C116.899 122.734 117.189 122.512 117.561 122.356C117.937 122.2 118.373 122.122 118.869 122.122C119.361 122.122 119.801 122.2 120.189 122.356C120.577 122.512 120.889 122.734 121.125 123.022C121.365 123.306 121.507 123.638 121.551 124.018L120.459 124.216C120.407 123.868 120.239 123.594 119.955 123.394C119.675 123.194 119.313 123.088 118.869 123.076C118.449 123.06 118.107 123.134 117.843 123.298C117.583 123.462 117.453 123.684 117.453 123.964C117.453 124.12 117.501 124.254 117.597 124.366C117.697 124.478 117.879 124.584 118.143 124.684C118.411 124.784 118.799 124.898 119.307 125.026C119.879 125.17 120.329 125.328 120.657 125.5C120.989 125.668 121.225 125.868 121.365 126.1C121.505 126.328 121.575 126.61 121.575 126.946C121.575 127.57 121.345 128.062 120.885 128.422C120.425 128.778 119.791 128.956 118.983 128.956ZM123.019 121.156V120.052H124.087V121.156H123.019ZM123.019 128.782V122.302H124.087V128.782H123.019ZM128.647 128.962C128.003 128.962 127.447 128.816 126.979 128.524C126.515 128.232 126.157 127.828 125.905 127.312C125.653 126.796 125.527 126.204 125.527 125.536C125.527 124.856 125.655 124.26 125.911 123.748C126.167 123.236 126.529 122.838 126.997 122.554C127.465 122.266 128.015 122.122 128.647 122.122C129.295 122.122 129.853 122.268 130.321 122.56C130.789 122.848 131.147 123.25 131.395 123.766C131.647 124.278 131.773 124.868 131.773 125.536C131.773 126.212 131.647 126.808 131.395 127.324C131.143 127.836 130.783 128.238 130.315 128.53C129.847 128.818 129.291 128.962 128.647 128.962ZM128.647 127.948C129.319 127.948 129.819 127.724 130.147 127.276C130.475 126.828 130.639 126.248 130.639 125.536C130.639 124.804 130.473 124.222 130.141 123.79C129.809 123.354 129.311 123.136 128.647 123.136C128.195 123.136 127.823 123.238 127.531 123.442C127.239 123.646 127.021 123.928 126.877 124.288C126.733 124.648 126.661 125.064 126.661 125.536C126.661 126.264 126.829 126.848 127.165 127.288C127.501 127.728 127.995 127.948 128.647 127.948ZM137.708 128.782V125.536C137.708 125.228 137.68 124.932 137.624 124.648C137.572 124.364 137.478 124.11 137.342 123.886C137.21 123.658 137.03 123.478 136.802 123.346C136.578 123.214 136.294 123.148 135.95 123.148C135.682 123.148 135.438 123.194 135.218 123.286C135.002 123.374 134.816 123.51 134.66 123.694C134.504 123.878 134.382 124.11 134.294 124.39C134.21 124.666 134.168 124.992 134.168 125.368L133.466 125.152C133.466 124.524 133.578 123.986 133.802 123.538C134.03 123.086 134.348 122.74 134.756 122.5C135.168 122.256 135.652 122.134 136.208 122.134C136.628 122.134 136.986 122.2 137.282 122.332C137.578 122.464 137.824 122.64 138.02 122.86C138.216 123.076 138.37 123.32 138.482 123.592C138.594 123.86 138.672 124.134 138.716 124.414C138.764 124.69 138.788 124.952 138.788 125.2V128.782H137.708ZM133.088 128.782V122.302H134.048V124.036H134.168V128.782H133.088ZM142.87 121.156V120.052H143.938V121.156H142.87ZM142.87 128.782V122.302H143.938V128.782H142.87ZM148.468 128.962C147.812 128.962 147.254 128.816 146.794 128.524C146.338 128.228 145.99 127.822 145.75 127.306C145.51 126.79 145.386 126.202 145.378 125.542C145.386 124.866 145.512 124.272 145.756 123.76C146.004 123.244 146.358 122.842 146.818 122.554C147.278 122.266 147.832 122.122 148.48 122.122C149.164 122.122 149.752 122.29 150.244 122.626C150.74 122.962 151.072 123.422 151.24 124.006L150.184 124.324C150.048 123.948 149.826 123.656 149.518 123.448C149.214 123.24 148.864 123.136 148.468 123.136C148.024 123.136 147.658 123.24 147.37 123.448C147.082 123.652 146.868 123.936 146.728 124.3C146.588 124.66 146.516 125.074 146.512 125.542C146.52 126.262 146.686 126.844 147.01 127.288C147.338 127.728 147.824 127.948 148.468 127.948C148.892 127.948 149.244 127.852 149.524 127.66C149.804 127.464 150.016 127.182 150.16 126.814L151.24 127.096C151.016 127.7 150.666 128.162 150.19 128.482C149.714 128.802 149.14 128.962 148.468 128.962ZM155.049 128.962C154.405 128.962 153.849 128.816 153.381 128.524C152.917 128.232 152.559 127.828 152.307 127.312C152.055 126.796 151.929 126.204 151.929 125.536C151.929 124.856 152.057 124.26 152.313 123.748C152.569 123.236 152.931 122.838 153.399 122.554C153.867 122.266 154.417 122.122 155.049 122.122C155.697 122.122 156.255 122.268 156.723 122.56C157.191 122.848 157.549 123.25 157.797 123.766C158.049 124.278 158.175 124.868 158.175 125.536C158.175 126.212 158.049 126.808 157.797 127.324C157.545 127.836 157.185 128.238 156.717 128.53C156.249 128.818 155.693 128.962 155.049 128.962ZM155.049 127.948C155.721 127.948 156.221 127.724 156.549 127.276C156.877 126.828 157.041 126.248 157.041 125.536C157.041 124.804 156.875 124.222 156.543 123.79C156.211 123.354 155.713 123.136 155.049 123.136C154.597 123.136 154.225 123.238 153.933 123.442C153.641 123.646 153.423 123.928 153.279 124.288C153.135 124.648 153.063 125.064 153.063 125.536C153.063 126.264 153.231 126.848 153.567 127.288C153.903 127.728 154.397 127.948 155.049 127.948ZM164.11 128.782V125.536C164.11 125.228 164.082 124.932 164.026 124.648C163.974 124.364 163.88 124.11 163.744 123.886C163.612 123.658 163.432 123.478 163.204 123.346C162.98 123.214 162.696 123.148 162.352 123.148C162.084 123.148 161.84 123.194 161.62 123.286C161.404 123.374 161.218 123.51 161.062 123.694C160.906 123.878 160.784 124.11 160.696 124.39C160.612 124.666 160.57 124.992 160.57 125.368L159.868 125.152C159.868 124.524 159.98 123.986 160.204 123.538C160.432 123.086 160.75 122.74 161.158 122.5C161.57 122.256 162.054 122.134 162.61 122.134C163.03 122.134 163.388 122.2 163.684 122.332C163.98 122.464 164.226 122.64 164.422 122.86C164.618 123.076 164.772 123.32 164.884 123.592C164.996 123.86 165.074 124.134 165.118 124.414C165.166 124.69 165.19 124.952 165.19 125.2V128.782H164.11ZM159.49 128.782V122.302H160.45V124.036H160.57V128.782H159.49Z" fill="#2A2A2D"/>
<path d="M242 128.776L242.006 127.816L245.84 124.366C246.16 124.078 246.374 123.806 246.482 123.55C246.594 123.29 246.65 123.024 246.65 122.752C246.65 122.42 246.574 122.12 246.422 121.852C246.27 121.584 246.062 121.372 245.798 121.216C245.538 121.06 245.242 120.982 244.91 120.982C244.566 120.982 244.26 121.064 243.992 121.228C243.724 121.388 243.512 121.602 243.356 121.87C243.204 122.138 243.13 122.43 243.134 122.746H242.042C242.042 122.202 242.168 121.722 242.42 121.306C242.672 120.886 243.014 120.558 243.446 120.322C243.882 120.082 244.376 119.962 244.928 119.962C245.464 119.962 245.944 120.086 246.368 120.334C246.792 120.578 247.126 120.912 247.37 121.336C247.618 121.756 247.742 122.232 247.742 122.764C247.742 123.14 247.694 123.466 247.598 123.742C247.506 124.018 247.362 124.274 247.166 124.51C246.97 124.742 246.724 124.99 246.428 125.254L243.242 128.116L243.104 127.756H247.742V128.776H242ZM249.634 128.782V127.606H250.81V128.782H249.634ZM256.676 128.782V120.142H260.09C260.174 120.142 260.274 120.146 260.39 120.154C260.506 120.158 260.618 120.17 260.726 120.19C261.194 120.262 261.586 120.422 261.902 120.67C262.222 120.918 262.462 121.232 262.622 121.612C262.782 121.988 262.862 122.406 262.862 122.866C262.862 123.322 262.78 123.74 262.616 124.12C262.456 124.496 262.216 124.81 261.896 125.062C261.58 125.31 261.19 125.47 260.726 125.542C260.618 125.558 260.506 125.57 260.39 125.578C260.274 125.586 260.174 125.59 260.09 125.59H257.744V128.782H256.676ZM257.744 124.576H260.054C260.13 124.576 260.216 124.572 260.312 124.564C260.412 124.556 260.506 124.542 260.594 124.522C260.87 124.458 261.094 124.342 261.266 124.174C261.442 124.002 261.57 123.802 261.65 123.574C261.73 123.342 261.77 123.106 261.77 122.866C261.77 122.626 261.73 122.392 261.65 122.164C261.57 121.932 261.442 121.73 261.266 121.558C261.094 121.386 260.87 121.27 260.594 121.21C260.506 121.186 260.412 121.172 260.312 121.168C260.216 121.16 260.13 121.156 260.054 121.156H257.744V124.576ZM264.179 121.156V120.052H265.247V121.156H264.179ZM264.179 128.782V122.302H265.247V128.782H264.179ZM271.661 128.782V125.536C271.661 125.228 271.633 124.932 271.577 124.648C271.525 124.364 271.431 124.11 271.295 123.886C271.163 123.658 270.983 123.478 270.755 123.346C270.531 123.214 270.247 123.148 269.903 123.148C269.635 123.148 269.391 123.194 269.171 123.286C268.955 123.374 268.769 123.51 268.613 123.694C268.457 123.878 268.335 124.11 268.247 124.39C268.163 124.666 268.121 124.992 268.121 125.368L267.419 125.152C267.419 124.524 267.531 123.986 267.755 123.538C267.983 123.086 268.301 122.74 268.709 122.5C269.121 122.256 269.605 122.134 270.161 122.134C270.581 122.134 270.939 122.2 271.235 122.332C271.531 122.464 271.777 122.64 271.973 122.86C272.169 123.076 272.323 123.32 272.435 123.592C272.547 123.86 272.625 124.134 272.669 124.414C272.717 124.69 272.741 124.952 272.741 125.2V128.782H271.661ZM267.041 128.782V122.302H268.001V124.036H268.121V128.782H267.041ZM276.103 128.782L278.995 120.142H280.483L283.375 128.782H282.265L279.559 120.766H279.895L277.213 128.782H276.103ZM277.495 126.76V125.758H281.983V126.76H277.495ZM284.449 128.782V122.302H285.403V123.868L285.247 123.664C285.323 123.464 285.421 123.28 285.541 123.112C285.665 122.944 285.803 122.806 285.955 122.698C286.123 122.562 286.313 122.458 286.525 122.386C286.737 122.314 286.953 122.272 287.173 122.26C287.393 122.244 287.599 122.258 287.791 122.302V123.304C287.567 123.244 287.321 123.228 287.053 123.256C286.785 123.284 286.537 123.382 286.309 123.55C286.101 123.698 285.939 123.878 285.823 124.09C285.711 124.302 285.633 124.532 285.589 124.78C285.545 125.024 285.523 125.274 285.523 125.53V128.782H284.449ZM292.478 128.962C291.618 128.962 290.888 128.772 290.288 128.392C289.688 128.012 289.23 127.484 288.914 126.808C288.602 126.132 288.446 125.35 288.446 124.462C288.446 123.574 288.602 122.792 288.914 122.116C289.23 121.44 289.688 120.912 290.288 120.532C290.888 120.152 291.618 119.962 292.478 119.962C293.478 119.962 294.3 120.216 294.944 120.724C295.592 121.232 296.038 121.916 296.282 122.776L295.196 123.064C295.02 122.42 294.706 121.912 294.254 121.54C293.802 121.168 293.21 120.982 292.478 120.982C291.834 120.982 291.298 121.128 290.87 121.42C290.442 121.712 290.12 122.12 289.904 122.644C289.688 123.164 289.578 123.77 289.574 124.462C289.57 125.15 289.676 125.756 289.892 126.28C290.108 126.8 290.432 127.208 290.864 127.504C291.296 127.796 291.834 127.942 292.478 127.942C293.21 127.942 293.802 127.756 294.254 127.384C294.706 127.008 295.02 126.5 295.196 125.86L296.282 126.148C296.038 127.004 295.592 127.688 294.944 128.2C294.3 128.708 293.478 128.962 292.478 128.962ZM300.358 128.962C299.714 128.962 299.158 128.816 298.69 128.524C298.226 128.232 297.868 127.828 297.616 127.312C297.364 126.796 297.238 126.204 297.238 125.536C297.238 124.856 297.366 124.26 297.622 123.748C297.878 123.236 298.24 122.838 298.708 122.554C299.176 122.266 299.726 122.122 300.358 122.122C301.006 122.122 301.564 122.268 302.032 122.56C302.5 122.848 302.858 123.25 303.106 123.766C303.358 124.278 303.484 124.868 303.484 125.536C303.484 126.212 303.358 126.808 303.106 127.324C302.854 127.836 302.494 128.238 302.026 128.53C301.558 128.818 301.002 128.962 300.358 128.962ZM300.358 127.948C301.03 127.948 301.53 127.724 301.858 127.276C302.186 126.828 302.35 126.248 302.35 125.536C302.35 124.804 302.184 124.222 301.852 123.79C301.52 123.354 301.022 123.136 300.358 123.136C299.906 123.136 299.534 123.238 299.242 123.442C298.95 123.646 298.732 123.928 298.588 124.288C298.444 124.648 298.372 125.064 298.372 125.536C298.372 126.264 298.54 126.848 298.876 127.288C299.212 127.728 299.706 127.948 300.358 127.948ZM309.419 128.782V125.536C309.419 125.228 309.391 124.932 309.335 124.648C309.283 124.364 309.189 124.11 309.053 123.886C308.921 123.658 308.741 123.478 308.513 123.346C308.289 123.214 308.005 123.148 307.661 123.148C307.393 123.148 307.149 123.194 306.929 123.286C306.713 123.374 306.527 123.51 306.371 123.694C306.215 123.878 306.093 124.11 306.005 124.39C305.921 124.666 305.879 124.992 305.879 125.368L305.177 125.152C305.177 124.524 305.289 123.986 305.513 123.538C305.741 123.086 306.059 122.74 306.467 122.5C306.879 122.256 307.363 122.134 307.919 122.134C308.339 122.134 308.697 122.2 308.993 122.332C309.289 122.464 309.535 122.64 309.731 122.86C309.927 123.076 310.081 123.32 310.193 123.592C310.305 123.86 310.383 124.134 310.427 124.414C310.475 124.69 310.499 124.952 310.499 125.2V128.782H309.419ZM304.799 128.782V122.302H305.759V124.036H305.879V128.782H304.799ZM316.673 128.782V125.536C316.673 125.228 316.645 124.932 316.589 124.648C316.537 124.364 316.443 124.11 316.307 123.886C316.175 123.658 315.995 123.478 315.767 123.346C315.543 123.214 315.259 123.148 314.915 123.148C314.647 123.148 314.403 123.194 314.183 123.286C313.967 123.374 313.781 123.51 313.625 123.694C313.469 123.878 313.347 124.11 313.259 124.39C313.175 124.666 313.133 124.992 313.133 125.368L312.431 125.152C312.431 124.524 312.543 123.986 312.767 123.538C312.995 123.086 313.313 122.74 313.721 122.5C314.133 122.256 314.617 122.134 315.173 122.134C315.593 122.134 315.951 122.2 316.247 122.332C316.543 122.464 316.789 122.64 316.985 122.86C317.181 123.076 317.335 123.32 317.447 123.592C317.559 123.86 317.637 124.134 317.681 124.414C317.729 124.69 317.753 124.952 317.753 125.2V128.782H316.673ZM312.053 128.782V122.302H313.013V124.036H313.133V128.782H312.053ZM322.062 128.962C321.426 128.962 320.87 128.822 320.394 128.542C319.922 128.258 319.554 127.864 319.29 127.36C319.026 126.852 318.894 126.26 318.894 125.584C318.894 124.876 319.024 124.264 319.284 123.748C319.544 123.228 319.906 122.828 320.37 122.548C320.838 122.264 321.386 122.122 322.014 122.122C322.666 122.122 323.22 122.272 323.676 122.572C324.136 122.872 324.48 123.3 324.708 123.856C324.94 124.412 325.04 125.074 325.008 125.842H323.928V125.458C323.916 124.662 323.754 124.068 323.442 123.676C323.13 123.28 322.666 123.082 322.05 123.082C321.39 123.082 320.888 123.294 320.544 123.718C320.2 124.142 320.028 124.75 320.028 125.542C320.028 126.306 320.2 126.898 320.544 127.318C320.888 127.738 321.378 127.948 322.014 127.948C322.442 127.948 322.814 127.85 323.13 127.654C323.446 127.458 323.694 127.176 323.874 126.808L324.9 127.162C324.648 127.734 324.268 128.178 323.76 128.494C323.256 128.806 322.69 128.962 322.062 128.962ZM319.668 125.842V124.984H324.456V125.842H319.668ZM329.074 128.962C328.418 128.962 327.86 128.816 327.4 128.524C326.944 128.228 326.596 127.822 326.356 127.306C326.116 126.79 325.992 126.202 325.984 125.542C325.992 124.866 326.118 124.272 326.362 123.76C326.61 123.244 326.964 122.842 327.424 122.554C327.884 122.266 328.438 122.122 329.086 122.122C329.77 122.122 330.358 122.29 330.85 122.626C331.346 122.962 331.678 123.422 331.846 124.006L330.79 124.324C330.654 123.948 330.432 123.656 330.124 123.448C329.82 123.24 329.47 123.136 329.074 123.136C328.63 123.136 328.264 123.24 327.976 123.448C327.688 123.652 327.474 123.936 327.334 124.3C327.194 124.66 327.122 125.074 327.118 125.542C327.126 126.262 327.292 126.844 327.616 127.288C327.944 127.728 328.43 127.948 329.074 127.948C329.498 127.948 329.85 127.852 330.13 127.66C330.41 127.464 330.622 127.182 330.766 126.814L331.846 127.096C331.622 127.7 331.272 128.162 330.796 128.482C330.32 128.802 329.746 128.962 329.074 128.962ZM336.688 128.782C336.304 128.858 335.924 128.888 335.548 128.872C335.176 128.86 334.844 128.786 334.552 128.65C334.26 128.51 334.038 128.294 333.886 128.002C333.758 127.746 333.688 127.488 333.676 127.228C333.668 126.964 333.664 126.666 333.664 126.334V120.502H334.732V126.286C334.732 126.55 334.734 126.776 334.738 126.964C334.746 127.152 334.788 127.314 334.864 127.45C335.008 127.706 335.236 127.856 335.548 127.9C335.864 127.944 336.244 127.932 336.688 127.864V128.782ZM332.35 123.184V122.302H336.688V123.184H332.35Z" fill="#2A2A2D"/>
<defs>
<filter id="filter0_d_260_302" x="41" y="47.782" width="106" height="55" filterUnits="userSpaceOnUse" color-interpolation-filters="sRGB">
<feFlood flood-opacity="0" result="BackgroundImageFix"/>
<feColorMatrix in="SourceAlpha" type="matrix" values="0 0 0 0 0 0 0 0 0 0 0 0 0 0 0 0 0 0 127 0" result="hardAlpha"/>
<feOffset dy="2"/>
<feGaussianBlur stdDeviation="2"/>
<feComposite in2="hardAlpha" operator="out"/>
<feColorMatrix type="matrix" values="0 0 0 0 0 0 0 0 0 0 0 0 0 0 0 0 0 0 0.25 0"/>
<feBlend mode="normal" in2="BackgroundImageFix" result="effect1_dropShadow_260_302"/>
<feBlend mode="normal" in="SourceGraphic" in2="effect1_dropShadow_260_302" result="shape"/>
</filter>
<filter id="filter1_i_260_302" x="-1261" y="59.782" width="1440" height="45" filterUnits="userSpaceOnUse" color-interpolation-filters="sRGB">
<feFlood flood-opacity="0" result="BackgroundImageFix"/>
<feBlend mode="normal" in="SourceGraphic" in2="BackgroundImageFix" result="shape"/>
<feColorMatrix in="SourceAlpha" type="matrix" values="0 0 0 0 0 0 0 0 0 0 0 0 0 0 0 0 0 0 127 0" result="hardAlpha"/>
<feOffset dy="-1"/>
<feComposite in2="hardAlpha" operator="arithmetic" k2="-1" k3="1"/>
<feColorMatrix type="matrix" values="0 0 0 0 0.854902 0 0 0 0 0.862745 0 0 0 0 0.878431 0 0 0 1 0"/>
<feBlend mode="normal" in2="shape" result="effect1_innerShadow_260_302"/>
</filter>
<filter id="filter2_d_260_302" x="222.1" y="47.782" width="129.8" height="56" filterUnits="userSpaceOnUse" color-interpolation-filters="sRGB">
<feFlood flood-opacity="0" result="BackgroundImageFix"/>
<feColorMatrix in="SourceAlpha" type="matrix" values="0 0 0 0 0 0 0 0 0 0 0 0 0 0 0 0 0 0 127 0" result="hardAlpha"/>
<feOffset dy="2"/>
<feGaussianBlur stdDeviation="2"/>
<feComposite in2="hardAlpha" operator="out"/>
<feColorMatrix type="matrix" values="0 0 0 0 0 0 0 0 0 0 0 0 0 0 0 0 0 0 0.25 0"/>
<feBlend mode="normal" in2="BackgroundImageFix" result="effect1_dropShadow_260_302"/>
<feBlend mode="normal" in="SourceGraphic" in2="effect1_dropShadow_260_302" result="shape"/>
</filter>
<clipPath id="clip0_260_302">
<rect x="45" y="49.782" width="98" height="47" rx="2" fill="white"/>
</clipPath>
<clipPath id="clip1_260_302">
<rect width="1440" height="38" fill="white" transform="translate(-1261 59.782)"/>
</clipPath>
<clipPath id="clip2_260_302">
<rect width="1201" height="28" fill="white" transform="translate(-1127 64.782)"/>
</clipPath>
<clipPath id="clip3_260_302">
<rect width="1440" height="42" fill="white" transform="translate(-1246 17.782)"/>
</clipPath>
</defs>
</svg>
