<svg width="15" height="12" viewBox="0 0 15 12" fill="none" xmlns="http://www.w3.org/2000/svg">
<path d="M15 1.42928C14.5565 2.06452 14.0423 2.58065 13.4577 2.97767V3.39454C13.4577 4.3871 13.2661 5.39454 12.8831 6.41687C12.5 7.43921 11.9405 8.36228 11.2046 9.1861C10.4688 10.0099 9.55645 10.6849 8.46774 11.2109C7.37903 11.737 6.12903 12 4.71774 12C3.83065 12 2.99395 11.8809 2.20766 11.6427C1.42137 11.4045 0.685484 11.067 0 10.6303C0.120968 10.6501 0.241935 10.665 0.362903 10.6749C0.483871 10.6849 0.604839 10.6898 0.725806 10.6898C1.45161 10.6898 2.14214 10.5707 2.79738 10.3325C3.45262 10.0943 4.04234 9.77668 4.56653 9.37965C3.88105 9.3598 3.28125 9.15633 2.76714 8.76923C2.25302 8.38213 1.89516 7.88089 1.69355 7.26551C1.79435 7.30521 1.89012 7.32506 1.98085 7.32506H2.26815C2.5504 7.32506 2.8125 7.29529 3.05444 7.23573C2.34879 7.07692 1.76411 6.72457 1.3004 6.17866C0.836694 5.63275 0.604839 4.99256 0.604839 4.25806V4.22829C0.826613 4.32754 1.04839 4.41191 1.27016 4.48139C1.49194 4.55087 1.73387 4.58561 1.99597 4.58561C1.59274 4.30769 1.26512 3.95037 1.0131 3.51365C0.761089 3.07692 0.635081 2.6005 0.635081 2.08437C0.635081 1.52854 0.77621 1.02233 1.05847 0.565757C1.8246 1.47891 2.75202 2.21836 3.84073 2.78412C4.92944 3.34988 6.10887 3.66253 7.37903 3.72208C7.31855 3.48387 7.28831 3.25558 7.28831 3.03722C7.28831 2.62035 7.36895 2.22829 7.53024 1.86104C7.69153 1.4938 7.91331 1.17122 8.19556 0.8933C8.47782 0.615385 8.80544 0.397022 9.17843 0.238213C9.55141 0.0794045 9.9496 0 10.373 0C10.8165 0 11.2298 0.0843673 11.6129 0.253102C11.996 0.421836 12.3286 0.655087 12.6109 0.952854C12.9738 0.8933 13.3165 0.799007 13.6391 0.669975C13.9617 0.540943 14.2742 0.387097 14.5766 0.208437C14.3347 0.942928 13.881 1.50868 13.2157 1.90571C13.8609 1.80645 14.4556 1.64764 15 1.42928Z" fill="white"/>
</svg>
