<svg width="100" height="100" viewBox="0 0 100 100" fill="none" xmlns="http://www.w3.org/2000/svg">
<path d="M50.5859 87.8906L50.9765 87.9883C51.0371 88.2402 50.8008 88.1582 50.7812 88.2324C50.7012 88.5254 50.7051 93.5996 50.9765 94.2383L50.4394 94.4336L12.3535 75.1953C12.2012 72.9785 12.3457 70.7695 12.4023 68.5547L50.5859 87.8906Z" fill="#D2D2D3"/>
<path d="M50.9766 94.2383C50.7051 93.5996 50.7012 88.5254 50.7813 88.2324C50.8008 88.1582 51.0371 88.2402 50.9766 87.9883C63.2487 81.7057 75.5208 75.4232 87.793 69.1406C87.8613 71.2578 87.9863 73.3691 87.8418 75.4883C75.5527 81.7383 63.2643 87.9883 50.9766 94.2383Z" fill="#D2D2D3"/>
<path d="M20.1172 70.1172C30.2442 75.1582 40.3047 80.332 50.3418 85.5469H50.7813C50.7168 86.3262 50.9531 87.2266 50.5859 87.8906L12.4024 68.5547C12.416 68.0293 12.1582 66.7617 12.3047 66.2598C12.3731 66.1484 12.5098 66.0957 12.5977 66.0156C12.6328 66.2188 12.4609 66.2168 12.5488 66.3086C12.8867 66.6621 19.041 69.582 20.1172 70.1172Z" fill="#0A0908"/>
<path d="M16.2109 64.1602L19.5801 66.2109C19.9082 65.543 21.4395 64.4629 21.582 64.8438C19.3789 65.8438 19.084 67.4023 21.4844 68.3594C19.168 67.4512 20.2207 67.5742 20.1172 70.1172C19.041 69.582 12.8867 66.6621 12.5488 66.3086C12.4609 66.2168 12.6328 66.2188 12.5977 66.0156C12.6719 65.9473 14.041 65.2168 14.3555 65.0391C14.9395 64.709 15.6191 64.4707 16.2109 64.1602Z" fill="#1E2422"/>
<path d="M38.8672 67.9687C39.0215 67.8613 39.1855 67.83 39.3555 67.7734L43.4082 69.7265C44.6914 68.705 54.0957 64.5429 54.4922 64.0625V69.873C54.6289 70.2812 60.2148 72.705 60.8398 73.4375C57.4531 75.1914 54.0254 76.8691 50.6836 78.7109L22.4121 64.4531C22.1191 64.5449 21.8594 64.7187 21.582 64.8437C21.4395 64.4628 19.9082 65.5429 19.5801 66.2109L16.2109 64.1601C17.8965 63.2734 19.5879 62.3828 21.2891 61.5234C22.002 61.164 22.7715 60.9082 23.4375 60.4492C23.5156 60.4707 23.5566 60.3086 23.6816 60.3515C25.3457 60.9121 35.8125 66.7558 38.8672 67.9687Z" fill="#293530"/>
<path d="M85.7422 27.5391L81.6406 29.6875C81.6309 29.4062 81.9121 29.4629 81.7383 29.1504C71.0723 23.3398 60.1641 17.9414 49.5605 12.0117C39.4844 17.2461 29.3379 22.3516 19.0918 27.2461C18.8262 27.5293 20.5371 28.3613 20.8008 28.125L20.8984 61.4746C21.0078 61.6895 21.3281 61.0918 21.2891 61.5234C19.5879 62.3828 17.8965 63.2734 16.2109 64.1602C15.6191 64.4707 14.9395 64.709 14.3555 65.0391L14.4043 26.2695C26.1882 20.3776 37.972 14.4857 49.7559 8.59375L85.7422 27.5391Z" fill="#D2D2D3"/>
<path d="M86.4258 66.3086C84.7168 65.3613 82.8965 64.5586 81.1523 63.6719C81.1152 63.3047 81.4473 63.8379 81.6406 63.4277C81.7969 63.0996 81.6348 57.1094 81.6406 56.1523C81.6797 48.6777 81.8906 36.5156 81.6406 29.6875L85.7422 27.5391H86.1816L86.4258 28.0762V66.3086Z" fill="#95BAA1"/>
<path d="M50.3906 13.2812C49.8555 14.4785 51.6172 22.1172 51.3672 22.5098L50.293 22.2656C48.0957 21.043 45.6836 20.123 43.5059 18.8477C42.6328 19.1777 37.5293 21.7617 37.3047 22.0703C37.293 22.0859 37.1406 22.0312 37.1094 22.1191C37.2109 29.1016 37.0156 36.0859 37.0117 43.0664C33.9922 44.582 31.0254 46.1992 28.0273 47.7539C26.3203 48.6387 24.5137 49.3613 22.8516 50.3418V60.3027C23.0391 60.5488 23.1465 60.3672 23.4375 60.4492C22.7715 60.9082 22.002 61.1641 21.2891 61.5234C21.3281 61.0918 21.0078 61.6895 20.8984 61.4746L20.8008 28.125C30.4062 22.8613 40.4551 18.4688 50.0488 13.1836L50.3906 13.2812Z" fill="#D2D2D3"/>
<path d="M81.6406 29.6875C71.224 24.2188 60.8073 18.75 50.3906 13.2812L50.0489 13.1836C40.4551 18.4688 30.4063 22.8613 20.8008 28.125C20.5371 28.3613 18.8262 27.5293 19.0918 27.2461C29.3379 22.3516 39.4844 17.2461 49.5606 12.0117C60.1641 17.9414 71.0723 23.3398 81.7383 29.1504C81.9121 29.4629 81.6309 29.4062 81.6406 29.6875Z" fill="#E8E8EA"/>
<path d="M81.6406 29.6875C81.8906 36.5156 81.6797 48.6777 81.6406 56.1523C80.1757 55.3711 78.7109 54.5898 77.2461 53.8086C77.2285 53.2207 77.0566 52.6035 77.1484 52.002C77.0683 51.8887 76.7812 51.9922 76.6601 51.9531C75.4023 51.5488 70.1035 48.5703 67.9687 47.7539C67.9531 44.2871 67.9804 40.8203 67.9687 37.3535C67.8652 37.2129 67.7812 37.2168 67.7734 37.207C67.5136 36.9141 61.7011 34.1836 60.791 33.6914L54.8828 36.7188L54.6875 36.8652C54.6758 39.1602 54.7031 41.4551 54.6875 43.75L51.7578 42.2852C51.7265 35.8574 51.5781 29.4277 51.6601 22.998C51.625 22.9082 51.4785 22.9648 51.4648 22.9492C51.3496 22.8184 50.5332 22.3984 50.2929 22.2656L51.3672 22.5098C51.6172 22.1172 49.8554 14.4785 50.3906 13.2812C60.8073 18.75 71.2239 24.2188 81.6406 29.6875Z" fill="#D2D2D3"/>
<path d="M21.4844 68.3594L50.6348 82.9102L50.7813 82.8125C58.6524 78.7012 66.6446 74.8184 74.5117 70.7031C74.9004 71.3125 77.168 71.9121 76.709 72.2656C68.0658 76.6927 59.4232 81.1198 50.7813 85.5469H50.3418C40.3047 80.3321 30.2442 75.1582 20.1172 70.1172C20.2207 67.5742 19.168 67.4512 21.4844 68.3594Z" fill="#1E2422"/>
<path d="M67.9687 47.7539C67.9766 49.2832 67.9512 50.8145 67.9687 52.3438C67.9863 53.8242 67.957 55.3066 67.9687 56.7871L72.0703 58.9844C70.6855 59.6953 69.3379 60.5352 67.9687 61.2793L68.0176 65.332C70.6816 63.8594 73.5469 62.666 76.1719 61.1328C77.8516 61.9414 79.4902 62.8281 81.1523 63.6719C82.8965 64.5586 84.7168 65.3613 86.4258 66.3086C86.9141 66.5801 87.4766 66.7441 87.8906 67.1387C88.0215 67.5273 87.7812 68.7852 87.793 69.1406C75.5208 75.4232 63.2487 81.7057 50.9766 87.9883L50.5859 87.8906C50.9531 87.2266 50.7168 86.3262 50.7812 85.5469C59.4245 81.1198 68.0671 76.6927 76.709 72.2656C77.168 71.9121 74.9004 71.3125 74.5117 70.7031C75.2832 70.2988 80.7461 67.6738 80.8594 67.334C81.4766 65.4844 79.5176 64.998 78.2715 64.3555C72.8496 67.2461 67.3711 70.0273 61.9141 72.8516V40.4297L67.7734 37.207C67.7734 37.207 67.8652 37.2129 67.9687 37.3535C67.9805 40.8203 67.9531 44.2871 67.9687 47.7539Z" fill="#0A0908"/>
<path d="M61.9141 40.4297V72.8516C61.5527 73.0391 61.1992 73.252 60.8398 73.4375C60.2148 72.7051 54.6289 70.2812 54.4922 69.873V64.0625C54.4922 64.0625 54.584 64.0586 54.6875 63.916C54.8047 62.5742 54.5723 61.1953 54.5898 59.8633C54.6094 58.4219 54.582 57.002 54.5898 55.5664C54.5938 54.8477 54.5879 54.1348 54.5898 53.418C54.5957 51.8535 54.584 50.291 54.5898 48.7305C54.5957 47.0781 54.6758 45.4082 54.6875 43.75C54.7031 41.4551 54.6758 39.1602 54.6875 36.8652L54.8828 36.7188L61.6699 40.5273L61.9141 40.4297Z" fill="#3A6349"/>
<path d="M67.7734 37.207L61.9141 40.4297L61.6699 40.5273L54.8828 36.7188L60.791 33.6914C61.7012 34.1836 67.5137 36.9141 67.7734 37.207Z" fill="#3A6349"/>
<path d="M77.2461 53.8086C77.3105 56.0469 76.9961 58.3477 77.1484 60.5957C76.8633 60.8438 76.4922 60.9453 76.1719 61.1328C73.5469 62.666 70.6816 63.8594 68.0176 65.332L67.9688 61.2793C69.3379 60.5352 70.6855 59.6953 72.0703 58.9844C72.1523 58.9414 72.3945 58.9961 73.7305 58.3008C73.9883 58.166 75.1465 57.6953 75.1953 57.5684C75.459 54.541 74.291 52.6055 76.6602 51.9531C76.7812 51.9922 77.0684 51.8887 77.1484 52.002C77.0566 52.6035 77.2285 53.2207 77.2461 53.8086Z" fill="#3AAB6B"/>
<path d="M76.6601 51.9531C74.291 52.6055 75.459 54.541 75.1953 57.5684C75.1465 57.6953 73.9883 58.166 73.7305 58.3008L73.6328 55.127C71.7969 54.1875 69.9121 52.8711 67.9687 52.3438C67.9512 50.8145 67.9766 49.2832 67.9687 47.7539C70.1035 48.5703 75.4023 51.5488 76.6601 51.9531Z" fill="#94D0A9"/>
<path d="M81.6406 56.1523C81.6348 57.1094 81.7969 63.0996 81.6406 63.4277C81.4473 63.8379 81.1152 63.3047 81.1523 63.6719C79.4902 62.8281 77.8516 61.9414 76.1719 61.1328C76.4922 60.9453 76.8633 60.8438 77.1484 60.5957C76.9961 58.3477 77.3105 56.0469 77.2461 53.8086C78.7109 54.5898 80.1758 55.3711 81.6406 56.1523Z" fill="#ADADAF"/>
<path d="M73.7305 58.3008C72.3945 58.9961 72.1523 58.9414 72.0703 58.9844L67.9687 56.7871C67.957 55.3066 67.9863 53.8242 67.9687 52.3438C69.9121 52.8711 71.7969 54.1875 73.6328 55.127L73.7305 58.3008Z" fill="#ADADAF"/>
<path d="M74.5117 70.7031C66.6445 74.8184 58.6523 78.7012 50.7812 82.8125L50.6836 78.7109C54.0254 76.8691 57.4531 75.1914 60.8398 73.4375C61.1992 73.252 61.5527 73.0391 61.9141 72.8516C67.3711 70.0273 72.8496 67.2461 78.2715 64.3555C79.5176 64.998 81.4766 65.4844 80.8594 67.334C80.7461 67.6738 75.2832 70.2988 74.5117 70.7031Z" fill="#3AAB6B"/>
<path d="M50.6836 78.7109L50.7813 82.8125L50.6348 82.9102L21.4844 68.3594C19.084 67.4023 19.3789 65.8438 21.582 64.8438C21.8594 64.7188 22.1192 64.5449 22.4121 64.4531L50.6836 78.7109Z" fill="#94D0A9"/>
<path d="M28.0273 47.7539V52.3438C27.4707 52.666 26.9629 53.0996 26.3672 53.3691V57.666C26.7734 57.8887 27.2246 57.9863 27.6367 58.2031C28.4355 58.623 29.2773 58.9707 30.0781 59.375C33.002 60.8516 35.8848 62.4102 38.8672 63.7695V67.9688C35.8125 66.7559 25.3457 60.9121 23.6816 60.3516C23.5566 60.3086 23.5156 60.4707 23.4375 60.4492C23.1465 60.3672 23.0391 60.5488 22.8516 60.3027V50.3418C24.5137 49.3613 26.3203 48.6387 28.0273 47.7539Z" fill="#94D0A9"/>
<path d="M54.5898 59.8633C51.9492 60.9316 40.3262 67.4473 39.3555 67.7734C39.1855 67.8301 39.0215 67.8613 38.8672 67.9688V63.7695C40.9043 62.6426 42.9492 61.5156 45.0195 60.4492C45.084 60.416 45.1504 60.3848 45.2148 60.3516C48.334 58.7441 51.4395 57.1113 54.5898 55.5664C54.582 57.002 54.6094 58.4219 54.5898 59.8633Z" fill="#3AAB6B"/>
<path d="M54.4922 64.0625C54.0957 64.543 44.6914 68.7051 43.4082 69.7266L39.3555 67.7734C40.3262 67.4473 51.9492 60.9316 54.5898 59.8633C54.5723 61.1953 54.8047 62.5742 54.6875 63.916C54.584 64.0586 54.5 64.0527 54.4922 64.0625Z" fill="#0A0908"/>
<path d="M54.5899 48.7305C54.584 50.291 54.5957 51.8535 54.5899 53.418L51.6602 51.8066C51.6485 50.3262 51.6758 48.8438 51.6602 47.3633L54.5899 48.7305Z" fill="#ADADAF"/>
<path d="M37.0117 47.7539C37.0078 49.6016 36.9785 51.4766 37.0117 53.3203L27.6367 58.2031C27.2246 57.9863 26.7734 57.8887 26.3672 57.666V53.3691C26.9629 53.0996 27.4707 52.666 28.0273 52.3438C28.084 52.3105 28.1641 52.4473 28.1738 52.4414C31.0723 50.7891 34.043 49.2754 37.0117 47.7539Z" fill="#ADADAF"/>
<path d="M37.0117 55.8594C37.1562 56.3965 44.0938 59.7012 45.0195 60.4492C42.9492 61.5156 40.9043 62.6426 38.8672 63.7695C35.8848 62.4102 33.002 60.8516 30.0781 59.375L37.0117 55.8594Z" fill="#293530"/>
<path d="M37.0117 53.3203C37.0273 54.166 37 55.0137 37.0117 55.8594L30.0781 59.375C29.2773 58.9707 28.4355 58.623 27.6367 58.2031L37.0117 53.3203Z" fill="#0A0908"/>
<path d="M45.8852 33.8925L49.0637 32.6296L45.3923 29.8924L47.6866 27.9182L43.9139 26.1439L44.9881 20.6507L40.3799 21.5899L40.577 16.3699L36.1563 19.9087L36.1736 13.0771L32.0242 18.2076L30.2048 11.9865L27.5938 18.4494L23.6935 11.3335L22.8916 19.4078L17.9601 14.4798L18.7218 20.9165L12.8954 17.8192L15.5806 24.1L10.1268 22.5762L12.3523 27.3024L7.74635 28.2411L10.8847 32.8757L8.10737 35.9851L10.9902 36.9041L8.68295 40.8598L12.1022 40.7781L10.7129 45.5479L13.8602 46.0435L13.591 48.9864L15.856 47.9804L16.7895 51.35L18.5562 49.9438L19.3742 53.0418L20.8366 52.1994C20.8366 52.1994 24.2029 54.517 29.4858 51.9124C29.791 51.766 30.0587 51.5517 30.2683 51.2859C30.4779 51.0201 30.624 50.7099 30.6952 50.379C30.8468 49.6397 30.5804 48.8249 28.6555 48.8985C25.2637 49.0278 20.8524 50.5857 18.3656 46.8018C18.3481 46.7753 18.3392 46.744 18.3402 46.7122C18.3411 46.6803 18.352 46.6496 18.3711 46.6242C18.3903 46.5988 18.4169 46.58 18.4472 46.5703C18.4775 46.5606 18.5101 46.5606 18.5404 46.5702C20.7998 47.3034 25.7561 47.3712 25.7102 45.1242C25.6612 42.7291 23.4788 42.3793 22.204 41.9815C20.9292 41.5836 15.3833 40.9571 14.9889 37.8058C14.5946 34.6546 18.1533 34.7936 19.0466 35.255C19.8306 35.5675 27.523 38.3777 27.523 38.3777C27.523 38.3777 25.715 42.1703 29.8085 41.336C33.902 40.5017 30.7561 37.7188 30.7561 37.7188C30.7561 37.7188 36.7324 32.1203 37.3342 31.5277C37.9758 30.7534 41.1944 29.2355 42.0666 32.287C42.9389 35.3384 38.0741 38.0833 37.059 38.9538C36.0439 39.8242 34.1691 40.9951 35.0637 43.2178C35.9018 45.3022 40.4335 43.3041 42.2263 41.7426C42.2505 41.7217 42.2807 41.7088 42.3126 41.7058C42.3444 41.7028 42.3765 41.7098 42.4042 41.7259C42.4319 41.7419 42.4539 41.7662 42.4671 41.7954C42.4803 41.8245 42.4842 41.8571 42.478 41.8885C41.6725 46.3422 37.0012 46.6355 33.8293 47.844C32.0303 48.5294 32.1015 49.3769 32.5328 50.0044C32.7275 50.2811 32.9828 50.5094 33.2794 50.6721C33.5759 50.8347 33.9058 50.9273 34.2437 50.9427C40.1269 51.2715 42.3187 47.821 42.3187 47.821L43.9941 48.0238L43.5344 44.8529L45.7094 45.4557L45.251 41.9904L47.7291 42.0297L46.3294 39.4258L49.0284 37.7457L45.8852 33.8925ZM23.7325 33.8394C23.2883 33.93 22.8273 33.8868 22.4077 33.7153C21.9881 33.5438 21.6288 33.2517 21.3752 32.876C21.1216 32.5003 20.9851 32.0578 20.9829 31.6045C20.9808 31.1513 21.1131 30.7075 21.3632 30.3294C21.6132 29.9514 21.9698 29.6559 22.3877 29.4805C22.8057 29.305 23.2663 29.2575 23.7113 29.3438C24.1563 29.4302 24.5657 29.6465 24.8877 29.9655C25.2098 30.2845 25.43 30.6919 25.5205 31.136C25.6419 31.7316 25.5217 32.3511 25.1864 32.858C24.8511 33.365 24.3281 33.7181 23.7325 33.8394ZM32.467 32.0592C32.0229 32.1497 31.5619 32.1065 31.1423 31.935C30.7227 31.7635 30.3633 31.4715 30.1097 31.0958C29.8561 30.7201 29.7196 30.2776 29.7175 29.8243C29.7153 29.371 29.8477 28.9273 30.0977 28.5492C30.3478 28.1711 30.7043 27.8757 31.1223 27.7002C31.5403 27.5248 32.0009 27.4772 32.4459 27.5636C32.8908 27.6499 33.3002 27.8663 33.6223 28.1853C33.9443 28.5043 34.1645 28.9116 34.255 29.3558C34.3153 29.6507 34.3168 29.9546 34.2596 30.2501C34.2023 30.5457 34.0874 30.827 33.9213 31.0781C33.7553 31.3291 33.5414 31.545 33.2918 31.7134C33.0423 31.8817 32.762 31.9992 32.467 32.0592Z" fill="#8E7BEA"/>
<path d="M37.3047 22.0703C39.8769 23.4824 42.6289 24.8594 45.3125 26.1719L45.2148 60.3515C45.1504 60.3848 45.084 60.416 45.0195 60.4492C44.0937 59.7012 37.1562 56.3965 37.0117 55.8594C37 55.0137 37.0273 54.166 37.0117 53.3203C36.9785 51.4765 37.0078 49.6015 37.0117 47.7539C37.0136 46.1894 37.0117 44.6289 37.0117 43.0664C37.0156 36.0859 37.2109 29.1015 37.1094 22.1191C37.1406 22.0312 37.2929 22.0859 37.3047 22.0703Z" fill="#3A6349"/>
<path d="M50.293 22.2656C50.5332 22.3984 51.3496 22.8184 51.4648 22.9492L45.3125 26.1719C42.6289 24.8594 39.877 23.4824 37.3047 22.0703C37.5293 21.7617 42.6328 19.1777 43.5059 18.8477C45.6836 20.123 48.0957 21.043 50.293 22.2656Z" fill="#3A6349"/>
<path d="M51.7578 42.2852C51.7656 43.9688 51.6426 45.6699 51.6602 47.3633C51.6758 48.8438 51.6484 50.3262 51.6602 51.8067L54.5898 53.418C54.5879 54.1348 54.5938 54.8477 54.5898 55.5664C51.4395 57.1113 48.334 58.7442 45.2148 60.3516L45.3125 26.1719L51.4648 22.9492C51.4785 22.9649 51.625 22.9082 51.6602 22.9981C51.5781 29.4277 51.7266 35.8574 51.7578 42.2852Z" fill="#0A0908"/>
</svg>
