<svg width="29" height="29" viewBox="0 0 29 29" fill="none" xmlns="http://www.w3.org/2000/svg">
<g clip-path="url(#clip0_3_10)">
<path d="M28 14.5C28 7.04416 21.9558 1 14.5 1C7.04416 1 1 7.04416 1 14.5C1 21.9558 7.04416 28 14.5 28C21.9558 28 28 21.9558 28 14.5Z" stroke="white"/>
<path d="M6.49899 18.491H9.16099L9.70499 17.021L8.48199 14.519L6.49999 18.49L6.49899 18.491ZM13.563 16.505L10.6 10.546L9.70399 12.586L12.502 18.491H14.518L13.561 16.505H13.563Z" fill="white"/>
<path fill-rule="evenodd" clip-rule="evenodd" d="M18.51 18.491C19.5685 18.491 20.5836 18.0705 21.3321 17.3221C22.0805 16.5736 22.501 15.5585 22.501 14.5C22.501 13.4415 22.0805 12.4264 21.3321 11.6779C20.5836 10.9295 19.5685 10.509 18.51 10.509C17.4515 10.509 16.4364 10.9295 15.6879 11.6779C14.9395 12.4264 14.519 13.4415 14.519 14.5C14.519 15.5585 14.9395 16.5736 15.6879 17.3221C16.4364 18.0705 17.4515 18.491 18.51 18.491ZM18.51 16.924C18.8325 16.9306 19.1531 16.8727 19.453 16.7538C19.7529 16.6349 20.0261 16.4573 20.2565 16.2316C20.4869 16.0058 20.67 15.7363 20.7949 15.4389C20.9199 15.1415 20.9843 14.8221 20.9843 14.4995C20.9843 14.1769 20.9199 13.8575 20.7949 13.5601C20.67 13.2627 20.4869 12.9932 20.2565 12.7674C20.0261 12.5417 19.7529 12.3641 19.453 12.2452C19.1531 12.1263 18.8325 12.0685 18.51 12.075C17.8669 12.075 17.2501 12.3305 16.7953 12.7853C16.3405 13.24 16.085 13.8569 16.085 14.5C16.085 15.1432 16.3405 15.76 16.7953 16.2147C17.2501 16.6695 17.8669 16.924 18.51 16.924Z" fill="white"/>
</g>
<defs>
<clipPath id="clip0_3_10">
<rect width="29" height="29" fill="black"/>
</clipPath>
</defs>
</svg>
