<svg width="41" height="20" viewBox="0 0 41 20" fill="none" xmlns="http://www.w3.org/2000/svg">
<path d="M0 19.9999H6.67072L8.0321 16.3186L4.96901 10.0467L0 19.9999Z" fill="white"/>
<path d="M17.6978 15.0233L10.2784 0.0933838L8.0321 5.20637L15.0432 19.9999H20.0936L17.6978 15.0233Z" fill="white"/>
<path fill-rule="evenodd" clip-rule="evenodd" d="M30.0934 20C35.6163 20 40.0935 15.5228 40.0935 10C40.0935 4.47715 35.6163 0 30.0934 0C24.5706 0 20.0934 4.47715 20.0934 10C20.0934 15.5228 24.5706 20 30.0934 20ZM30.0934 16.0748C33.4485 16.0748 36.1683 13.355 36.1683 10C36.1683 6.645 33.4485 3.92523 30.0934 3.92523C26.7384 3.92523 24.0186 6.645 24.0186 10C24.0186 13.355 26.7384 16.0748 30.0934 16.0748Z" fill="white"/>
</svg>
