<svg viewBox="0 0 66 13" fill="currentColor" xmlns="http://www.w3.org/2000/svg" color="var(--mui-palette-text-primary)"><path d="M0 12.9721H3.99308L4.80799 10.7684L2.97444 7.01401L0 12.9721Z" fill="currentColor"/><path d="M10.5939 9.99303L6.1526 1.05597L4.80799 4.11661L9.0048 12.9721H12.028L10.5939 9.99303Z" fill="currentColor"/><path fill-rule="evenodd" clip-rule="evenodd" d="M18.014 12.972C21.32 12.972 24 10.292 24 6.98601C24 3.68003 21.32 1 18.014 1C14.708 1 12.028 3.68003 12.028 6.98601C12.028 10.292 14.708 12.972 18.014 12.972ZM18.014 10.6224C20.0223 10.6224 21.6503 8.99432 21.6503 6.98601C21.6503 4.97771 20.0223 3.34965 18.014 3.34965C16.0057 3.34965 14.3776 4.97771 14.3776 6.98601C14.3776 8.99432 16.0057 10.6224 18.014 10.6224Z" fill="currentColor"/><path d="M27.8218 11.2999H32.9091V12.486H26.5V1.48602H27.8218V11.2999Z" fill="currentColor"/><path d="M34.9706 1.48602H41.2583V2.70237H38.7647V11.2772H41.2583V12.486H34.9706V11.2772H37.4071V2.70237H34.9706V1.48602Z" fill="currentColor"/><path d="M50.1291 12.486H48.7858L44.7488 4.26624L44.7274 12.486H43.3913V1.48602H44.7345L48.7715 9.69069L48.7929 1.48602H50.1291V12.486Z" fill="currentColor"/><path d="M54.7485 7.37888L53.591 8.76899V12.486H52.2406V1.48602H53.591V6.85759L54.5985 5.52792L57.6494 1.48602H59.2571L55.6202 6.29852L59.5 12.486H57.8924L54.7485 7.37888Z" fill="currentColor"/><path d="M62.5 4L65.5 1M65.5 1L62.9286 1M65.5 1V3.57143" stroke="currentColor"/></svg>