<svg width="121" height="80" viewBox="0 0 121 80" fill="none" xmlns="http://www.w3.org/2000/svg">
<g clip-path="url(#clip0_2693_581)">
<g filter="url(#filter0_dd_2693_581)">
<rect x="0.71582" width="120" height="80" rx="7.27273" fill="white"/>
<rect x="1.17037" y="0.454545" width="119.091" height="79.0909" rx="6.81818" stroke="black" stroke-width="0.909091"/>
<g clip-path="url(#clip1_2693_581)">
<path d="M29.812 25.157C28.6702 26.5081 26.8434 27.5737 25.0165 27.4215C24.7882 25.5947 25.6826 23.6537 26.7292 22.4548C27.871 21.0657 29.8691 20.0761 31.4866 20C31.6769 21.9029 30.9347 23.7678 29.812 25.157ZM31.4675 27.7831C28.8224 27.6308 26.5579 29.2864 25.302 29.2864C24.027 29.2864 22.105 27.8592 20.0118 27.8972C17.2905 27.9353 14.7596 29.4767 13.3704 31.9315C10.516 36.8411 12.6283 44.1104 15.3876 48.1066C16.7387 50.0856 18.3562 52.255 20.4875 52.1789C22.5046 52.1028 23.3039 50.8658 25.7396 50.8658C28.1945 50.8658 28.8986 52.1789 31.0299 52.1408C33.2373 52.1028 34.6264 50.1618 35.9775 48.1827C37.5189 45.9372 38.1469 43.7488 38.185 43.6346C38.1469 43.5966 33.9224 41.9791 33.8843 37.1075C33.8462 33.0352 37.2145 31.0942 37.3667 30.98C35.4637 28.1637 32.4951 27.8592 31.4675 27.7831ZM46.7483 22.2645V51.9315H51.3534V41.7888H57.7283C63.5514 41.7888 67.6427 37.7926 67.6427 32.0076C67.6427 26.2226 63.6275 22.2645 57.8806 22.2645H46.7483V22.2645ZM51.3534 26.1465H56.6627C60.6589 26.1465 62.9424 28.2778 62.9424 32.0266C62.9424 35.7755 60.6589 37.9258 56.6436 37.9258H51.3534V26.1465V26.1465ZM76.0538 52.1598C78.9463 52.1598 81.6294 50.6946 82.8473 48.373H82.9425V51.9315H87.2051V37.1646C87.2051 32.883 83.7798 30.1237 78.5086 30.1237C73.618 30.1237 70.0024 32.921 69.8692 36.765H74.0176C74.3601 34.9382 76.0538 33.7393 78.3754 33.7393C81.1917 33.7393 82.7712 35.0523 82.7712 37.4691V39.1056L77.0243 39.4481C71.677 39.7716 68.7845 41.96 68.7845 45.7659C68.7845 49.6099 71.7721 52.1598 76.0538 52.1598ZM77.2907 48.6394C74.8359 48.6394 73.2755 47.4596 73.2755 45.6518C73.2755 43.7869 74.7788 42.7022 77.6523 42.5309L82.7712 42.2074V43.882C82.7712 46.6603 80.4115 48.6394 77.2907 48.6394ZM92.8949 60C97.3859 60 99.4982 58.2873 101.344 53.0923L109.432 30.4091H104.75L99.3269 47.9353H99.2318L93.8083 30.4091H88.9939L96.796 52.0076L96.3773 53.3206C95.6732 55.5471 94.5315 56.4034 92.4953 56.4034C92.1337 56.4034 91.4296 56.3654 91.1442 56.3273V59.8858C91.4106 59.9619 92.5524 60 92.8949 60Z" fill="black"/>
</g>
</g>
</g>
<defs>
<filter id="filter0_dd_2693_581" x="-12.9205" y="-4.54545" width="147.273" height="107.273" filterUnits="userSpaceOnUse" color-interpolation-filters="sRGB">
<feFlood flood-opacity="0" result="BackgroundImageFix"/>
<feColorMatrix in="SourceAlpha" type="matrix" values="0 0 0 0 0 0 0 0 0 0 0 0 0 0 0 0 0 0 127 0" result="hardAlpha"/>
<feOffset dy="3.63636"/>
<feGaussianBlur stdDeviation="2.72727"/>
<feColorMatrix type="matrix" values="0 0 0 0 0 0 0 0 0 0 0 0 0 0 0 0 0 0 0.05 0"/>
<feBlend mode="normal" in2="BackgroundImageFix" result="effect1_dropShadow_2693_581"/>
<feColorMatrix in="SourceAlpha" type="matrix" values="0 0 0 0 0 0 0 0 0 0 0 0 0 0 0 0 0 0 127 0" result="hardAlpha"/>
<feOffset dy="9.09091"/>
<feGaussianBlur stdDeviation="6.81818"/>
<feColorMatrix type="matrix" values="0 0 0 0 0 0 0 0 0 0 0 0 0 0 0 0 0 0 0.1 0"/>
<feBlend mode="normal" in2="effect1_dropShadow_2693_581" result="effect2_dropShadow_2693_581"/>
<feBlend mode="normal" in="SourceGraphic" in2="effect2_dropShadow_2693_581" result="shape"/>
</filter>
<clipPath id="clip0_2693_581">
<rect width="120" height="80" fill="white" transform="translate(0.71582)"/>
</clipPath>
<clipPath id="clip1_2693_581">
<rect width="97.7273" height="40.1216" fill="white" transform="translate(11.8522 19.9392)"/>
</clipPath>
</defs>
</svg>
