<svg width="36px" height="36px" viewBox="0 0 36 29" fill="black" xmlns="http://www.w3.org/2000/svg"><path d="M34.4757 17.0201C34.4757 7.62016 26.8398 0 17.4205 0C8.00119 0 5.52995e-06 7.62016 5.52995e-06 17.0201V27.643C-0.00102459 28.0033 0.1419 28.349 0.397128 28.6037C0.652355 28.8584 0.99882 29.001 1.35976 29H3.30226C3.66321 29.001 4.00967 28.8584 4.26489 28.6037C4.52012 28.349 4.66304 28.0033 4.66201 27.643V18.8189C4.66201 18.0695 5.27079 17.462 6.02176 17.462H8.78786C9.53882 17.462 10.1476 18.0695 10.1476 18.8189V27.643C10.1466 28.0033 10.2895 28.349 10.5448 28.6037C10.8 28.8584 11.1464 29.001 11.5074 29H13.4499C13.8108 29.001 14.1573 28.8584 14.4125 28.6037C14.6678 28.349 14.8107 28.0033 14.8096 27.643V24.964C14.8096 22.2838 16.2425 19.8072 18.5684 18.4671C20.8943 17.127 23.76 17.127 26.0858 18.4671C28.4118 19.8072 29.8446 22.2838 29.8446 24.964V27.643C29.8446 28.3924 30.4533 29 31.2044 29H33.1237C33.8746 29 34.4835 28.3924 34.4835 27.643L34.4757 17.0201ZM9.81738 13.3971C9.56295 13.8068 9.21394 14.1497 8.79951 14.3973C8.07743 14.8108 7.21031 14.8887 6.4258 14.6106C6.3118 14.5754 6.20328 14.5245 6.10334 14.4594C5.20728 13.9684 4.6504 13.0293 4.6504 12.0091C4.6504 10.9889 5.20728 10.0499 6.10334 9.55885C6.20798 9.49216 6.32186 9.44128 6.44134 9.40763C7.46109 9.04985 8.59608 9.3025 9.36676 10.059C9.90858 10.5583 10.2157 11.2615 10.2137 11.9975C10.2129 12.4915 10.0757 12.9757 9.81738 13.3971Z" fill="current"></path><path d="M35.9922 17.0201C35.9922 7.62016 28.3564 0 18.937 0C9.51772 0 1.51654 7.62016 1.51654 17.0201V27.643C1.51551 28.0033 1.65844 28.349 1.91366 28.6037C2.16889 28.8584 2.51536 29.001 2.8763 29H4.8188C5.17974 29.001 5.5262 28.8584 5.78143 28.6037C6.03666 28.349 6.17958 28.0033 6.17855 27.643V18.8189C6.17855 18.0695 6.78733 17.462 7.5383 17.462H10.3044C11.0554 17.462 11.6642 18.0695 11.6642 18.8189V27.643C11.6631 28.0033 11.806 28.349 12.0613 28.6037C12.3165 28.8584 12.663 29.001 13.0239 29H14.9664C15.3274 29.001 15.6738 28.8584 15.929 28.6037C16.1843 28.349 16.3272 28.0033 16.3262 27.643V24.964C16.3262 22.2838 17.759 19.8072 20.0849 18.4671C22.4109 17.127 25.2765 17.127 27.6024 18.4671C29.9283 19.8072 31.3611 22.2838 31.3611 24.964V27.643C31.3611 28.3924 31.9699 29 32.7209 29H34.6402C35.3912 29 36 28.3924 36 27.643L35.9922 17.0201ZM11.3339 13.3971C11.0795 13.8068 10.7305 14.1497 10.316 14.3973C9.59396 14.8108 8.72685 14.8887 7.94232 14.6106C7.82837 14.5754 7.7198 14.5245 7.61992 14.4594C6.72382 13.9684 6.16694 13.0293 6.16694 12.0091C6.16694 10.9889 6.72382 10.0499 7.61992 9.55885C7.72449 9.49216 7.83837 9.44128 7.9579 9.40763C8.97763 9.04985 10.1126 9.3025 10.8833 10.059C11.4251 10.5583 11.7323 11.2615 11.7302 11.9975C11.7294 12.4915 11.5923 12.9757 11.3339 13.3971Z" fill="current"></path></svg>