<svg width="82" height="80" viewBox="0 0 82 80" fill="none" xmlns="http://www.w3.org/2000/svg">
<g clip-path="url(#clip0_2693_569)">
<path d="M35.6822 25.6035H29.1798L33.2469 0.455811H39.7489L35.6822 25.6035Z" fill="#00579F"/>
<path d="M59.2543 1.07051C57.9717 0.561686 55.9375 -0.00012207 53.4222 -0.00012207C47.0008 -0.00012207 42.479 3.42406 42.4513 8.31961C42.3979 11.9315 45.6888 13.9377 48.1501 15.142C50.6658 16.3727 51.5209 17.1759 51.5209 18.2729C51.4953 19.9576 49.4881 20.7341 47.616 20.7341C45.0199 20.7341 43.6289 20.3338 41.515 19.3965L40.6588 18.9947L39.7489 24.6398C41.274 25.3346 44.0837 25.9511 47.0008 25.9782C53.8236 25.9782 58.2655 22.607 58.3181 17.39C58.344 14.5272 56.6063 12.3337 52.86 10.5412C50.5858 9.3906 49.193 8.61474 49.193 7.43743C49.2196 6.36715 50.371 5.27091 52.9382 5.27091C55.0521 5.21722 56.6053 5.72534 57.7819 6.23381L58.37 6.50085L59.2543 1.07051V1.07051Z" fill="#00579F"/>
<path d="M67.8962 16.6945C68.4317 15.2498 70.4923 9.65844 70.4923 9.65844C70.4652 9.71213 71.0267 8.18707 71.3478 7.25084L71.8022 9.41771C71.8022 9.41771 73.0336 15.4372 73.3009 16.6945C72.2847 16.6945 69.1805 16.6945 67.8962 16.6945ZM75.9226 0.455811H70.893C69.342 0.455811 68.1636 0.910235 67.4944 2.54232L57.8359 25.6031H64.6587C64.6587 25.6031 65.782 22.4993 66.0234 21.8308C66.7719 21.8308 73.409 21.8308 74.3719 21.8308C74.5586 22.7137 75.1478 25.6031 75.1478 25.6031H81.1684L75.9226 0.455811V0.455811Z" fill="#00579F"/>
<path d="M23.7488 0.455811L17.3808 17.6041L16.6849 14.1262C15.5076 10.1132 11.8153 5.75316 7.69495 3.58522L13.5278 25.5768H20.4039L30.6245 0.455811H23.7488V0.455811Z" fill="#00579F"/>
<path d="M11.4678 0.455811H1.00608L0.899048 0.963926C9.05984 3.05079 14.4646 8.08111 16.6851 14.1273L14.4109 2.5697C14.0365 0.963571 12.8858 0.508791 11.4678 0.455811Z" fill="#FAA61A"/>
</g>
<path d="M51.8622 35.6663H30.1411V74.6903H51.8622V35.6663Z" fill="#FF5A00"/>
<path d="M31.587 55.1782C31.587 47.2497 35.3143 40.2129 41.0338 35.6662C36.8245 32.3566 31.5147 30.3564 25.723 30.3564C12.0027 30.3564 0.901123 41.458 0.901123 55.1782C0.901123 68.8985 12.0027 80.0001 25.723 80.0001C31.5147 80.0001 36.8245 77.9999 41.0338 74.6903C35.3063 70.2079 31.587 63.1068 31.587 55.1782Z" fill="#EB001B"/>
<path d="M81.1665 55.1782C81.1665 68.8985 70.0649 80.0001 56.3446 80.0001C50.5529 80.0001 45.2431 77.9999 41.0338 74.6903C46.8256 70.1356 50.4806 63.1068 50.4806 55.1782C50.4806 47.2497 46.7533 40.2129 41.0338 35.6662C45.2351 32.3566 50.5448 30.3564 56.3366 30.3564C70.0649 30.3564 81.1665 41.5303 81.1665 55.1782Z" fill="#F79E1B"/>
<defs>
<clipPath id="clip0_2693_569">
<rect width="80.2695" height="25.9783" fill="white" transform="translate(0.898926)"/>
</clipPath>
</defs>
</svg>
