<svg width="27" height="27" viewBox="0 0 27 27" xmlns="http://www.w3.org/2000/svg" color="var(--mui-palette-text-primary)"><path d="M11.1046 6.14115C11.877 6.02149 12.6775 5.95861 13.5 5.95861C14.2699 5.95861 15.0205 6.0137 15.7468 6.11888C15.656 5.72661 15.4596 5.37242 15.1877 5.08512C14.6348 5.02894 14.0715 5 13.5 5C12.8734 5 12.2568 5.03478 11.6529 5.10211C11.3841 5.39181 11.1914 5.74774 11.1046 6.14115Z" fill="currentColor"></path><path d="M10.0652 6.33987C10.0973 5.97331 10.1932 5.62413 10.3422 5.30257C4.40967 6.46103 0 10.8109 0 16C0 22.0751 6.04416 27 13.5 27C20.9558 27 27 22.0751 27 16C27 10.7651 22.5121 6.38422 16.5002 5.27261C16.6527 5.59288 16.7522 5.94116 16.7882 6.30718C22.1813 7.48088 26 11.4702 26 16C26 21.4055 20.5621 26.0414 13.5 26.0414C6.43789 26.0414 1 21.4055 1 16C1 11.5113 4.7496 7.55341 10.0652 6.33987Z" fill="currentColor"></path><path d="M22.6175 0.117012C23.3508 -0.254977 24.2566 0.314771 24.1476 1.05477C23.9853 2.15664 23.8134 3.66179 23.7645 5.32178C23.7382 6.21749 24.0144 7.07427 24.3715 7.7969C24.7444 8.55153 24.0162 9.59763 23.1007 9.43811C20.5593 8.99527 18.6074 8.47309 16.471 7.7246C16.6839 7.33437 16.8032 6.8969 16.8032 6.43484C16.8032 5.61245 16.4253 4.86794 15.8143 4.32911C17.9467 2.70893 19.8936 1.49882 22.6175 0.117012Z" fill="#EBB9CE"></path><path d="M10.4721 4.99708C7.73352 3.63507 5.34203 2.88907 2.07592 2.0174C1.31839 1.81522 0.611156 2.4373 0.833908 3.10727L1.79798 6.00691C2.04579 6.75225 2.13198 7.53215 2.05204 8.30568L1.80103 10.7342C1.7324 11.3983 2.49293 11.8865 3.18569 11.6196C6.28553 10.4256 8.44055 9.46026 10.6476 8.12277C10.2727 7.64306 10.0532 7.06156 10.0532 6.43484C10.0532 5.91342 10.2052 5.42331 10.4721 4.99708Z" fill="#EBB9CE"></path><path d="M15.8032 6.43484C15.8032 7.59197 14.7399 8.53002 13.4282 8.53002C12.1165 8.53002 11.0532 7.59197 11.0532 6.43484C11.0532 5.2777 12.1165 4.33965 13.4282 4.33965C14.7399 4.33965 15.8032 5.2777 15.8032 6.43484Z" fill="#EBB9CE"></path><mask id="path-3-inside-1_1_277" fill="currentColor"><path fill-rule="evenodd" clip-rule="evenodd" d="M8.707 14C9.02264 14 9.27851 14.2358 9.27851 14.5268V15.4829C9.27851 15.7738 9.02264 16.0096 8.707 16.0096C8.39137 16.0096 8.1355 15.7738 8.1355 15.4829V14.5268C8.1355 14.2358 8.39137 14 8.707 14ZM11.3034 14.2261C11.5684 14.384 11.6443 14.7101 11.4729 14.9544L10.9014 15.7689C10.73 16.0132 10.3762 16.0832 10.1112 15.9252C9.84612 15.7672 9.77022 15.4411 9.94163 15.1968L10.5131 14.3823C10.6845 14.138 11.0384 14.0681 11.3034 14.2261ZM6.10984 14.2265C6.3746 14.0681 6.72853 14.1376 6.90037 14.3816L7.5425 15.2935C7.71433 15.5375 7.639 15.8638 7.37424 16.0221C7.10948 16.1805 6.75555 16.1111 6.58372 15.8671L5.94159 14.9551C5.76976 14.7111 5.84508 14.3849 6.10984 14.2265Z"></path><path d="M5.00001 16.2371C5.00328 16.766 5.57765 17.1255 6.12277 16.9589C6.96883 16.7003 7.73 16.5308 8.50068 16.4729C9.53012 16.3955 10.5765 16.5174 11.865 16.8924C12.4185 17.0535 13.0033 16.6843 13 16.1489C12.9981 15.8367 12.7882 15.5563 12.4683 15.4544C9.83524 14.6158 8.15865 14.7339 5.55652 15.5187C5.22092 15.6199 4.998 15.9119 5.00001 16.2371Z"></path></mask><path fill-rule="evenodd" clip-rule="evenodd" d="M8.707 14C9.02264 14 9.27851 14.2358 9.27851 14.5268V15.4829C9.27851 15.7738 9.02264 16.0096 8.707 16.0096C8.39137 16.0096 8.1355 15.7738 8.1355 15.4829V14.5268C8.1355 14.2358 8.39137 14 8.707 14ZM11.3034 14.2261C11.5684 14.384 11.6443 14.7101 11.4729 14.9544L10.9014 15.7689C10.73 16.0132 10.3762 16.0832 10.1112 15.9252C9.84612 15.7672 9.77022 15.4411 9.94163 15.1968L10.5131 14.3823C10.6845 14.138 11.0384 14.0681 11.3034 14.2261ZM6.10984 14.2265C6.3746 14.0681 6.72853 14.1376 6.90037 14.3816L7.5425 15.2935C7.71433 15.5375 7.639 15.8638 7.37424 16.0221C7.10948 16.1805 6.75555 16.1111 6.58372 15.8671L5.94159 14.9551C5.76976 14.7111 5.84508 14.3849 6.10984 14.2265Z" fill="currentColor"></path><path d="M5.00001 16.2371C5.00328 16.766 5.57765 17.1255 6.12277 16.9589C6.96883 16.7003 7.73 16.5308 8.50068 16.4729C9.53012 16.3955 10.5765 16.5174 11.865 16.8924C12.4185 17.0535 13.0033 16.6843 13 16.1489C12.9981 15.8367 12.7882 15.5563 12.4683 15.4544C9.83524 14.6158 8.15865 14.7339 5.55652 15.5187C5.22092 15.6199 4.998 15.9119 5.00001 16.2371Z" fill="currentColor"></path><path fill-rule="evenodd" clip-rule="evenodd" d="M8.707 14C9.02264 14 9.27851 14.2358 9.27851 14.5268V15.4829C9.27851 15.7738 9.02264 16.0096 8.707 16.0096C8.39137 16.0096 8.1355 15.7738 8.1355 15.4829V14.5268C8.1355 14.2358 8.39137 14 8.707 14ZM11.3034 14.2261C11.5684 14.384 11.6443 14.7101 11.4729 14.9544L10.9014 15.7689C10.73 16.0132 10.3762 16.0832 10.1112 15.9252C9.84612 15.7672 9.77022 15.4411 9.94163 15.1968L10.5131 14.3823C10.6845 14.138 11.0384 14.0681 11.3034 14.2261ZM6.10984 14.2265C6.3746 14.0681 6.72853 14.1376 6.90037 14.3816L7.5425 15.2935C7.71433 15.5375 7.639 15.8638 7.37424 16.0221C7.10948 16.1805 6.75555 16.1111 6.58372 15.8671L5.94159 14.9551C5.76976 14.7111 5.84508 14.3849 6.10984 14.2265Z" stroke="currentColor" stroke-width="2" mask="url(#path-3-inside-1_1_277)"></path><path d="M5.00001 16.2371C5.00328 16.766 5.57765 17.1255 6.12277 16.9589C6.96883 16.7003 7.73 16.5308 8.50068 16.4729C9.53012 16.3955 10.5765 16.5174 11.865 16.8924C12.4185 17.0535 13.0033 16.6843 13 16.1489C12.9981 15.8367 12.7882 15.5563 12.4683 15.4544C9.83524 14.6158 8.15865 14.7339 5.55652 15.5187C5.22092 15.6199 4.998 15.9119 5.00001 16.2371Z" stroke="currentColor" stroke-width="2" mask="url(#path-3-inside-1_1_277)"></path><path fill-rule="evenodd" clip-rule="evenodd" d="M20.0012 14C20.3169 13.9984 20.5741 14.2329 20.5759 14.5238L20.5817 15.4799C20.5835 15.7708 20.329 16.008 20.0134 16.0096C19.6978 16.0112 19.4405 15.7767 19.4387 15.4858L19.4329 14.5297C19.4312 14.2388 19.6856 14.0016 20.0012 14ZM22.5989 14.2127C22.8649 14.3693 22.9428 14.6951 22.7729 14.9402L22.2063 15.7576C22.0364 16.0028 21.683 16.0746 21.417 15.918C21.151 15.7613 21.0731 15.4356 21.2431 15.1905L21.8096 14.373C21.9796 14.1279 22.3329 14.0561 22.5989 14.2127ZM17.4055 14.2399C17.6693 14.0801 18.0236 14.1477 18.1969 14.3909L18.8446 15.2995C19.0179 15.5426 18.9445 15.8692 18.6807 16.029C18.4169 16.1887 18.0626 16.1211 17.8893 15.878L17.2416 14.9694C17.0683 14.7262 17.1417 14.3996 17.4055 14.2399Z" fill="currentColor"></path><path d="M16 16.2371C16.0033 16.766 16.5777 17.1255 17.1228 16.9589C17.9688 16.7003 18.73 16.5308 19.5007 16.4729C20.5301 16.3955 21.5765 16.5174 22.865 16.8924C23.4185 17.0535 24.0033 16.6843 24 16.1489C23.9981 15.8367 23.7882 15.5563 23.4683 15.4544C20.8352 14.6158 19.1586 14.7338 16.5565 15.5187C16.2209 15.6199 15.998 15.9119 16 16.2371Z" fill="currentColor"></path><path fill-rule="evenodd" clip-rule="evenodd" d="M17.1228 16.9589C16.5777 17.1255 16.0033 16.766 16 16.2371C15.998 15.9119 16.2209 15.6199 16.5565 15.5187C19.1586 14.7338 20.8352 14.6158 23.4683 15.4544C23.7882 15.5563 23.9981 15.8367 24 16.1489C24.0033 16.6843 23.4185 17.0535 22.865 16.8924C21.5765 16.5174 20.5301 16.3955 19.5007 16.4729C18.73 16.5308 17.9688 16.7003 17.1228 16.9589Z" fill="currentColor"></path></svg>