<?xml version="1.0" encoding="UTF-8"?>
<svg width="512px" height="512px" viewBox="0 0 512 512" version="1.1" xmlns="http://www.w3.org/2000/svg" xmlns:xlink="http://www.w3.org/1999/xlink">
    <g id="echo" stroke="none" stroke-width="1" fill="none" fill-rule="evenodd">
        <path d="M256.2147,88.3205081 L111,172.160254 L111,339.839746 L256.2147,423.679492 L401.429399,339.839746 L401.429399,172.160254 L256.2147,88.3205081 Z M263.7147,58.0096189 L423.929399,150.509619 C428.570416,153.189111 431.429399,158.141016 431.429399,163.5 L431.429399,348.5 C431.429399,353.858984 428.570416,358.810889 423.929399,361.490381 L263.7147,453.990381 C259.073684,456.669873 253.355716,456.669873 248.7147,453.990381 L88.5,361.490381 C83.8589838,358.810889 81,353.858984 81,348.5 L81,163.5 C81,158.141016 83.8589838,153.189111 88.5,150.509619 L248.7147,58.0096189 C253.355716,55.330127 259.073684,55.330127 263.7147,58.0096189 Z" id="Polygon" fill="#000000" fill-rule="nonzero"></path>
        <path d="M88.5023394,175.99279 C81.3280027,171.850563 78.8699919,162.676676 83.0122187,155.502339 C87.1544454,148.328003 96.3283327,145.869992 103.502669,150.012219 L263.712669,242.512219 C268.353593,245.191736 271.212504,250.143589 271.212504,255.502504 L271.212504,440.502504 C271.212504,448.786776 264.496776,455.502504 256.212504,455.502504 C247.928233,455.502504 241.212504,448.786776 241.212504,440.502504 L241.212504,264.162631 L88.5023394,175.99279 Z" id="Path" fill="#000000" fill-rule="nonzero"></path>
        <path d="M467.004029,327 C467.004029,318.715729 473.719758,312 482.004029,312 C490.2883,312 497.004029,318.715729 497.004029,327 L497.004029,387 C497.004029,392.358984 494.145045,397.310889 489.504029,399.990381 L437.542505,429.990381 C430.368115,434.132517 421.194259,431.674389 417.052124,424.5 C412.909988,417.325611 415.368115,408.151755 422.542505,404.009619 L467.004029,378.339746 L467.004029,327 Z" id="Path" fill="#000000" fill-rule="nonzero"></path>
        <path d="M45,133.660254 L45,185 C45,193.284271 38.2842712,200 30,200 C21.7157288,200 15,193.284271 15,185 L15,125 C15,119.641016 17.8589838,114.689111 22.5,112.009619 L74.4615242,82.0096189 C81.6359136,77.8674833 90.8097697,80.3256106 94.9519053,87.5 C99.0940409,94.6743894 96.6359136,103.848245 89.4615242,107.990381 L45,133.660254 Z" id="Path" fill="#000000" fill-rule="nonzero"></path>
        <path d="M185.343665,197.884714 L185.394922,197.914308 C195.391422,203.685959 195.39552,218.113286 185.402301,223.890616 L103.507544,271.236022 C101.225463,272.555351 98.6360046,273.25 96,273.25 L95.79,273.25 C80.4435611,273.25 74.9995266,252.933102 88.289835,245.259714 L170.343335,197.884714 C174.984435,195.205095 180.702565,195.205095 185.343665,197.884714 Z" id="Path" fill="#000000" fill-rule="nonzero"></path>
        <path d="M237.303665,227.884714 L237.320845,227.894633 C247.317345,233.666285 247.321444,248.093612 237.328224,253.870942 L103.507544,331.236022 C101.225463,332.555351 98.6360046,333.25 96,333.25 L95.79,333.25 C80.4435611,333.25 74.9995266,312.933102 88.289835,305.259714 L222.303335,227.884714 C226.944435,225.205095 232.662565,225.205095 237.303665,227.884714 Z" id="Path" fill="#000000" fill-rule="nonzero"></path>
        <path d="M114.053335,350.384714 L248.499835,272.759714 C265.820216,262.759494 280.822241,288.725963 263.507544,298.736022 L129.149217,376.41193 C124.507004,379.09571 118.785245,379.097335 114.141508,376.416194 L114.053335,376.365286 C104.053555,370.591741 104.053555,356.158259 114.053335,350.384714 Z" id="Path" fill="#000000" fill-rule="nonzero"></path>
        <path d="M166.013335,380.384714 L248.499835,332.759714 C265.820216,322.759494 280.822241,348.725963 263.507544,358.736022 L181.075141,406.392256 C176.432928,409.076035 170.711168,409.077661 166.067431,406.396519 L166.013335,406.365286 C156.013555,400.591741 156.013555,386.158259 166.013335,380.384714 Z" id="Path" fill="#000000" fill-rule="nonzero"></path>
    </g>
</svg>