<svg width="120" height="80" viewBox="0 0 120 80" fill="none" xmlns="http://www.w3.org/2000/svg">
<g clip-path="url(#clip0_2693_585)">
<g filter="url(#filter0_dd_2693_585)">
<rect width="120" height="80" rx="7.27273" fill="white"/>
<rect x="0.454545" y="0.454545" width="119.091" height="79.0909" rx="6.81818" stroke="black" stroke-width="0.909091"/>
<g clip-path="url(#clip1_2693_585)">
<path d="M57.6901 40.6824V50.4462H54.5405V26.2992H62.7295C64.7243 26.2992 66.614 27.0341 68.0838 28.3989C69.5537 29.6588 70.2886 31.5485 70.2886 33.5433C70.2886 35.538 69.5537 37.3228 68.0838 38.6876C66.614 40.0525 64.8292 40.7874 62.7295 40.7874L57.6901 40.6824ZM57.6901 29.2388V37.6378H62.9395C64.0943 37.6378 65.2492 37.2178 65.9841 36.3779C67.6639 34.8031 67.6639 32.1785 66.0891 30.6037L65.9841 30.4987C65.1442 29.6588 64.0943 29.1338 62.9395 29.2388H57.6901Z" fill="#5F6368"/>
<path d="M77.533 33.4383C79.8427 33.4383 81.6275 34.0682 82.9924 35.3281C84.3572 36.5879 84.9871 38.2677 84.9871 40.3674V50.4462H82.0475V48.1365H81.9425C80.6826 50.0262 78.8979 50.9711 76.7981 50.9711C75.0134 50.9711 73.4385 50.4462 72.1787 49.3963C71.0238 48.3464 70.2889 46.8766 70.2889 45.3018C70.2889 43.622 70.9189 42.2572 72.1787 41.2073C73.4385 40.1575 75.2233 39.7375 77.3231 39.7375C79.2128 39.7375 80.6826 40.0525 81.8375 40.7874V40.0525C81.8375 39.0026 81.4176 37.9527 80.5777 37.3228C79.7378 36.5879 78.6879 36.168 77.533 36.168C75.7483 36.168 74.3834 36.9029 73.4385 38.3727L70.7089 36.6929C72.3887 34.4882 74.5934 33.4383 77.533 33.4383ZM73.5435 45.4068C73.5435 46.2467 73.9635 46.9816 74.5934 47.4015C75.3283 47.9265 76.1682 48.2414 77.0081 48.2414C78.2679 48.2414 79.5278 47.7165 80.4727 46.7716C81.5225 45.8267 82.0475 44.6719 82.0475 43.412C81.1026 42.6771 79.7378 42.2572 77.953 42.2572C76.6931 42.2572 75.6433 42.5722 74.8034 43.2021C73.9635 43.727 73.5435 44.4619 73.5435 45.4068Z" fill="#5F6368"/>
<path d="M101.995 33.9633L91.6011 57.7953H88.4515L92.336 49.5013L85.5118 34.0682H88.8714L93.8058 45.9318H93.9108L98.7402 34.0682H101.995V33.9633Z" fill="#5F6368"/>
<path d="M45.1969 38.5826C45.1969 37.6378 45.0919 36.6929 44.9869 35.748H31.8635V41.1023H39.3176C39.0026 42.7821 38.0578 44.3569 36.5879 45.3018V48.7664H41.1024C43.727 46.3517 45.1969 42.7821 45.1969 38.5826Z" fill="#4285F4"/>
<path d="M31.8637 52.126C35.6432 52.126 38.7928 50.8661 41.1025 48.7664L36.5881 45.3018C35.3282 46.1417 33.7534 46.6667 31.8637 46.6667C28.2941 46.6667 25.1445 44.252 24.0946 40.8924H19.4752V44.4619C21.8899 49.1864 26.6143 52.126 31.8637 52.126Z" fill="#34A853"/>
<path d="M24.0941 40.8924C23.4642 39.2126 23.4642 37.3228 24.0941 35.5381V31.9685H19.4747C17.4799 35.853 17.4799 40.4724 19.4747 44.4619L24.0941 40.8924Z" fill="#FBBC04"/>
<path d="M31.8635 29.8688C33.8583 29.8688 35.7481 30.6037 37.2179 31.9685L41.2074 27.979C38.6877 25.6693 35.3281 24.3045 31.9685 24.4095C26.7192 24.4095 21.8898 27.3491 19.5801 32.0735L24.1995 35.6431C25.1444 32.2835 28.294 29.8688 31.8635 29.8688Z" fill="#EA4335"/>
</g>
</g>
</g>
<defs>
<filter id="filter0_dd_2693_585" x="-13.6364" y="-4.54545" width="147.273" height="107.273" filterUnits="userSpaceOnUse" color-interpolation-filters="sRGB">
<feFlood flood-opacity="0" result="BackgroundImageFix"/>
<feColorMatrix in="SourceAlpha" type="matrix" values="0 0 0 0 0 0 0 0 0 0 0 0 0 0 0 0 0 0 127 0" result="hardAlpha"/>
<feOffset dy="3.63636"/>
<feGaussianBlur stdDeviation="2.72727"/>
<feColorMatrix type="matrix" values="0 0 0 0 0 0 0 0 0 0 0 0 0 0 0 0 0 0 0.05 0"/>
<feBlend mode="normal" in2="BackgroundImageFix" result="effect1_dropShadow_2693_585"/>
<feColorMatrix in="SourceAlpha" type="matrix" values="0 0 0 0 0 0 0 0 0 0 0 0 0 0 0 0 0 0 127 0" result="hardAlpha"/>
<feOffset dy="9.09091"/>
<feGaussianBlur stdDeviation="6.81818"/>
<feColorMatrix type="matrix" values="0 0 0 0 0 0 0 0 0 0 0 0 0 0 0 0 0 0 0.1 0"/>
<feBlend mode="normal" in2="effect1_dropShadow_2693_585" result="effect2_dropShadow_2693_585"/>
<feBlend mode="normal" in="SourceGraphic" in2="effect2_dropShadow_2693_585" result="shape"/>
</filter>
<clipPath id="clip0_2693_585">
<rect width="120" height="80" fill="white"/>
</clipPath>
<clipPath id="clip1_2693_585">
<rect width="83.9895" height="40" fill="white" transform="translate(18.0052 20)"/>
</clipPath>
</defs>
</svg>
