<?xml version="1.0" standalone="no"?>
<!DOCTYPE svg PUBLIC "-//W3C//DTD SVG 20010904//EN"
 "http://www.w3.org/TR/2001/REC-SVG-20010904/DTD/svg10.dtd">
<svg version="1.0" xmlns="http://www.w3.org/2000/svg"
 width="400.000000pt" height="400.000000pt" viewBox="0 0 400.000000 400.000000"
 preserveAspectRatio="xMidYMid meet">

<g transform="translate(0.000000,400.000000) scale(0.100000,-0.100000)"
fill="#4844ec" stroke="none">
<path d="M1162 3109 c-58 -11 -137 -56 -174 -98 -17 -19 -44 -63 -61 -98 -26
-57 -29 -72 -25 -141 5 -97 34 -163 112 -252 100 -115 149 -245 150 -405 1
-84 -2 -96 -33 -157 -18 -37 -73 -112 -122 -169 -106 -120 -130 -159 -159
-257 -62 -207 36 -425 233 -515 66 -30 167 -42 239 -29 107 20 172 59 281 172
130 133 154 145 282 145 92 0 104 -3 153 -30 35 -19 76 -55 117 -106 173 -206
303 -279 502 -279 240 0 442 165 499 406 21 90 14 188 -19 283 -45 127 -128
224 -241 279 -84 41 -132 51 -236 52 -173 0 -265 -43 -453 -212 -78 -71 -152
-128 -183 -143 -113 -53 -274 -41 -403 32 -83 47 -299 258 -329 323 -31 67
-43 160 -32 268 12 132 43 192 162 320 120 128 141 170 141 277 0 171 -87 290
-240 330 -62 16 -96 17 -161 4z"/>
<path d="M2591 3039 c-213 -42 -298 -305 -152 -472 135 -153 403 -105 476 85
22 60 18 176 -10 233 -56 114 -188 179 -314 154z"/>
</g>
</svg>
