<svg width="36" height="24" viewBox="0 0 36 24" fill="none" xmlns="http://www.w3.org/2000/svg">
<g clip-path="url(#clip0_3175_289)">
<path d="M0 3C0 1.34315 1.34315 0 3 0H33C34.6569 0 36 1.34315 36 3V21C36 22.6569 34.6569 24 33 24H3C1.34315 24 0 22.6569 0 21V3Z" fill="#FDEACE"/>
<path d="M21.7561 4.89573L14.0093 4.92236L14.244 19.1047L21.9908 19.0781L21.7561 4.89573Z" fill="#FF5F00"/>
<path d="M14.5192 12.0421C14.4713 9.15755 15.7635 6.59448 17.7875 4.93195C16.2597 3.73312 14.3444 3.01222 12.2682 3.01933C7.34954 3.03618 3.43723 7.08822 3.52018 12.0798C3.60313 17.0714 7.64967 21.0962 12.5683 21.0793C14.6446 21.0722 16.5357 20.3383 18.0234 19.1291C15.9448 17.5057 14.5671 14.9267 14.5192 12.0421Z" fill="#EB001B"/>
<path d="M32.4801 11.9207C32.5631 16.9122 28.6508 20.9643 23.7321 20.9811C21.6559 20.9882 19.7406 20.2674 18.2128 19.0685C20.2616 17.4059 21.529 14.8429 21.4811 11.9583C21.4332 9.07376 20.0559 6.51983 17.9769 4.87136C19.4646 3.6622 21.3558 2.92826 23.432 2.92115C28.3507 2.9043 32.3976 6.95417 32.4801 11.9207Z" fill="#F79E1B"/>
</g>
<defs>
<clipPath id="clip0_3175_289">
<rect width="36" height="24" fill="white"/>
</clipPath>
</defs>
</svg>
