<?xml version="1.0" encoding="utf-8"?>
<!-- Generator: Adobe Illustrator 25.2.1, SVG Export Plug-In . SVG Version: 6.00 Build 0)  -->
<svg version="1.1" id="Layer_2" xmlns="http://www.w3.org/2000/svg" xmlns:xlink="http://www.w3.org/1999/xlink" x="0px" y="0px"
	 viewBox="0 0 2500 2500" style="enable-background:new 0 0 2500 2500;" xml:space="preserve">
<style type="text/css">
	.Drop_x0020_Shadow{fill:none;}
	.Outer_x0020_Glow_x0020_5_x0020_pt{fill:none;}
	.Blue_x0020_Neon{fill:none;stroke:#8AACDA;stroke-width:7;stroke-linecap:round;stroke-linejoin:round;}
	.Chrome_x0020_Highlight{fill:url(#SVGID_1_);stroke:#FFFFFF;stroke-width:0.3629;stroke-miterlimit:1;}
	.Jive_GS{fill:#FFDD00;}
	.Alyssa_GS{fill:#A6D0E4;}
	.st0{display:none;fill:#FFFFFF;}
	.st1{fill:#1B1B1B;}
	.st2{fill:#FF8500;}
	.st3{display:none;fill:#1B1B1B;}
	.st4{font-family:'AbyssinicaSIL-Regular';}
	.st5{font-size:405.9753px;}
</style>
<linearGradient id="SVGID_1_" gradientUnits="userSpaceOnUse" x1="0" y1="0" x2="6.123234e-17" y2="-1">
	<stop  offset="0" style="stop-color:#656565"/>
	<stop  offset="0.618" style="stop-color:#1B1B1B"/>
	<stop  offset="0.6292" style="stop-color:#545454"/>
	<stop  offset="0.9831" style="stop-color:#3E3E3E"/>
</linearGradient>
<g>
	<path class="st0" d="M210.579,1378.924c-0.191-0.096-0.541-0.181-0.548-0.288c-0.048-0.761-0.025-1.527-0.025-2.292
		c0-115.923,0-231.846,0-347.77c77.981,0,155.963,0,233.944,0c0,116.783,0,233.567,0,350.35c-42.431,0-84.862,0-127.293,0
		c0-5.718,0-11.437,0-17.332c-0.921-0.121-1.751-0.281-2.588-0.331c-7.246-0.437-14.491-0.891-21.74-1.267
		c-7.718-0.4-10.653-3.41-10.651-11.107c0.011-36.506,0.029-73.012,0.044-109.518c0-1.022,0-2.044,0-3.269
		c1.69,0.133,3.011,0.294,4.335,0.333c13.256,0.393,26.532,1.394,39.766,1.005c22.477-0.661,44.124-5.568,64.168-16.096
		c24.018-12.615,41.442-31.178,49.088-57.648c6.276-21.727,5.973-43.784,1.015-65.751c-5.825-25.809-21.121-43.71-45.568-53.89
		c-20.651-8.599-42.367-12.128-64.486-13.069c-18.124-0.771-36.293-0.502-54.442-0.685c-0.61-0.006-1.222,0.094-2.225,0.178
		c5.472,7.067,8.958,14.662,11.105,22.857c0.465,1.775,1.564,1.611,2.792,1.612c8.41,0.003,16.821,0.091,25.229-0.021
		c9.717-0.13,19.235,1.239,28.634,3.524c26.212,6.371,42.278,22.858,48.41,49.025c3.652,15.586,3.276,31.295,0.419,46.931
		c-4.786,26.192-19.792,43.955-44.878,52.913c-16.115,5.754-32.805,6.817-49.724,4.992c-4.521-0.487-9.022-1.165-13.794-1.789
		c0-41.146,0-81.965,0-123.298c-6.258,3.744-12.065,7.218-18.216,10.897c0-4.556-0.019-8.472,0.009-12.387
		c0.012-1.642-0.238-3.412-2.164-3.253c-0.709,0.059-1.719,2.105-1.786,3.291c-0.225,4.001-0.179,8.026-0.051,12.035
		c0.067,2.091-0.732,3.324-2.519,4.35c-4.47,2.567-8.776,5.422-13.275,7.932c-2.02,1.127-2.649,2.458-2.647,4.736
		c0.062,70.338,0.056,140.675,0.045,211.013c-0.001,8.12-0.085,16.241-0.14,24.361c-0.026,3.865-1.601,6.974-5.132,8.58
		c-1.845,0.839-4.053,1.015-6.123,1.203c-6.256,0.569-12.524,0.998-18.987,1.497
		C210.579,1367.492,210.579,1373.208,210.579,1378.924z M256.397,1030.046c-0.238,0.191-0.476,0.382-0.714,0.573
		c3.454,10.801,3.624,14.865,0.518,22.334c-1.534,3.689-3.387,7.245-5.097,10.861c-2.063,4.364-3.391,8.874-3.098,13.786
		c0.347,5.808,4.147,10.882,8.772,11.451c-2.131-9.825,1.133-18.466,5.907-26.858c3.935,8.81,7.021,17.663,2.909,27.803
		c6.193-3.174,9.383-7.954,9.559-14.258c0.383-13.716-3.423-26.323-11.417-37.514
		C261.62,1035.262,258.861,1032.759,256.397,1030.046z"/>
	<path class="st1" d="M831.579,1843c0-18.561,0-37.123,0-56.65c20.987-1.62,41.344-3.013,61.658-4.862
		c6.722-0.612,13.89-1.182,19.883-3.907c11.469-5.216,16.582-15.313,16.667-27.863c0.178-26.37,0.45-52.74,0.454-79.111
		c0.036-228.416,0.057-456.832-0.145-685.247c-0.007-7.399,2.037-11.722,8.596-15.381c14.612-8.15,28.596-17.422,43.111-25.757
		c5.805-3.333,8.398-7.338,8.182-14.127c-0.415-13.021-0.564-26.09,0.166-39.084c0.216-3.849,3.495-10.496,5.799-10.686
		c6.252-0.518,7.063,5.232,7.026,10.564c-0.089,12.715-0.029,25.43-0.029,40.226c19.973-11.948,38.831-23.23,59.154-35.387
		c0,134.224,0,266.783,0,400.4c15.496,2.028,30.112,4.227,44.794,5.81c54.945,5.924,109.145,2.474,161.476-16.212
		c81.468-29.091,130.197-86.773,145.739-171.83c9.279-50.778,10.502-101.79-1.359-152.404
		c-19.914-84.975-72.087-138.514-157.208-159.204c-30.524-7.42-61.434-11.865-92.988-11.442c-27.305,0.366-54.619,0.081-81.929,0.07
		c-3.989-0.002-7.557,0.529-9.067-5.235c-6.972-26.612-18.293-51.278-36.063-74.226c3.258-0.271,5.243-0.598,7.226-0.578
		c58.938,0.592,117.939-0.281,176.797,2.223c71.831,3.056,142.35,14.516,209.413,42.44c79.39,33.057,129.062,91.189,147.979,175.002
		c16.101,71.336,17.083,142.964-3.297,213.52c-24.829,85.958-81.415,146.24-159.41,187.206
		c-65.093,34.189-135.389,50.123-208.38,52.271c-42.977,1.264-86.088-1.986-129.137-3.262c-4.301-0.127-8.59-0.649-14.079-1.082
		c0,3.978,0.001,7.296,0,10.614c-0.049,118.55-0.106,237.1-0.142,355.65c-0.008,24.996,9.524,34.768,34.589,36.068
		c23.541,1.221,47.069,2.695,70.599,4.113c2.718,0.164,5.415,0.684,8.405,1.076c0,19.145,0,37.715,0,56.284
		C1061.231,1843,946.405,1843,831.579,1843z"/>
	<path class="st2" d="M980.369,710.045c8.001,8.813,16.962,16.941,23.833,26.561c25.958,36.341,38.318,77.281,37.074,121.824
		c-0.572,20.472-10.929,35.995-31.041,46.301c13.354-32.931,3.334-61.68-9.445-90.29c-15.504,27.25-26.105,55.313-19.184,87.218
		c-15.019-1.847-27.358-18.327-28.485-37.187c-0.953-15.953,3.36-30.599,10.06-44.77c5.552-11.742,11.57-23.29,16.552-35.269
		c10.087-24.253,9.533-37.451-1.683-72.527C978.823,711.286,979.596,710.666,980.369,710.045z"/>
	<text transform="matrix(1 0 0 1 490.0703 1373.8066)" class="st3 st4 st5">ermafacts</text>
</g>
</svg>
