<?xml version="1.0" encoding="utf-8" ?>	<!-- Generator: Assembly 2.4 - http://assemblyapp.co -->	<svg version="1.1" xmlns="http://www.w3.org/2000/svg" xmlns:xlink="http://www.w3.org/1999/xlink" width="250.00" height="250.00" viewBox="0 0 250.0 250.0">		<g id="document" transform="scale(0.8333333333333334 0.8333333333333334) translate(150.0 150.0)">			<g>				<path d="M-29.1456,-18.0074 L4.22809,-18.0074 C-0.333788,-29.7722 -2.49467,-42.2573 -2.49467,-54.9826 C-2.49467,-59.5444 -2.25458,-63.8662 -1.53428,-68.4281 C-1.29418,-70.1088 -2.49467,-71.5494 -4.17536,-71.7895 C-7.05655,-72.0296 -9.93773,-72.2697 -12.8189,-72.2697 C-28.1852,-72.2697 -42.5911,-68.188 -54.8362,-60.985 L-54.8362,-43.6979 C-55.0763,-29.5321 -43.3114,-18.0074 -29.1456,-18.0074 Z " fill="#830ebf" fill-opacity="1.00" />				<path d="M119.475,-30.2524 C117.555,-29.7722 115.874,-29.5321 113.953,-29.5321 C111.792,-29.5321 109.631,-29.7722 107.23,-30.2524 C99.5472,-31.9331 92.1042,-36.7351 86.3418,-43.4578 C80.8195,-50.1806 77.4582,-58.344 76.978,-66.2672 C76.7378,-72.2697 78.1784,-77.7919 81.2997,-82.3538 C77.4582,-83.3142 73.3765,-84.0345 69.0547,-84.0345 C67.8542,-84.0345 66.8938,-84.0345 65.6933,-83.7944 C63.0522,-83.5543 60.1711,-84.2746 57.7701,-85.4751 C45.7651,-91.2375 32.3196,-94.5988 18.1538,-94.1186 C18.1538,-94.1186 18.1538,-94.1186 17.9137,-94.1186 C14.7924,-87.8761 12.1513,-81.3934 10.7107,-74.4306 C9.27016,-67.9479 8.54986,-61.4652 8.54986,-54.9826 C8.54986,-36.0148 14.3122,-17.7673 24.8766,-2.40099 C26.5573,0.240099 26.0771,3.60148 23.436,5.52227 C22.4756,6.24256 21.2751,6.48266 20.3147,6.48266 C18.634,6.48266 16.7132,5.52227 15.7528,4.08168 C13.5919,0.720296 11.431,-2.64108 9.51025,-6.00246 L-29.1456,-6.00246 C-50.0342,-6.00246 -67.0812,-23.0495 -67.0812,-43.938 L-67.0812,-52.8217 C-79.0861,-42.7375 -88.2099,-29.5321 -93.492,-14.4059 C-97.8138,-1.21e-13 -107.658,11.7648 -120.863,18.7277 C-112.22,19.2079 -104.056,17.7673 -96.8534,14.646 C-95.4128,13.9257 -93.7321,14.646 -93.2519,16.0866 C-92.0514,19.448 -90.8509,23.0495 -89.8906,26.6509 C-87.7297,34.5742 -86.5292,42.7375 -86.5292,51.3811 C-86.5292,64.1063 -88.9302,76.3513 -93.492,87.3959 C-94.9326,90.7573 -92.2915,94.3587 -88.6901,94.3587 L-55.7966,94.3587 C-52.6753,94.3587 -49.7941,92.1979 -49.0738,89.3167 C-47.153,81.3934 -43.3114,74.4306 -38.2694,68.188 C-36.8288,66.2672 -34.4278,65.5469 -32.0268,65.787 C-28.9055,66.2672 -25.5441,66.5073 -22.4229,66.5073 C-17.861,66.5073 -13.5392,66.0271 -9.21743,65.3068 C-6.57635,64.8266 -3.69517,65.787 -2.01448,67.9479 C3.02759,74.4306 6.14887,82.1137 7.34937,90.5172 C7.58947,92.678 9.75035,94.3587 11.9112,94.3587 C20.5548,94.3587 40.0028,94.3587 48.4062,94.3587 C50.327,94.3587 51.5275,92.4379 50.8072,90.7573 C44.8047,76.8315 41.4434,61.4652 41.4434,45.1385 C41.4434,38.1757 42.1637,31.4529 43.3642,24.9703 C43.3642,24.7302 43.6042,24.0099 43.6042,23.5297 C45.2849,18.2475 47.6859,14.1658 52.0077,11.2846 C52.728,10.5643 56.5696,9.12375 57.53,8.88365 C58.7305,8.64355 59.931,8.40345 61.1314,8.40345 C70.0151,8.40345 76.0176,14.8861 78.6586,23.0495 C79.3789,24.7302 79.8591,26.1707 80.0992,28.0915 C80.8195,32.1732 81.2997,36.2549 81.2997,40.5767 C81.2997,64.8266 68.0943,80.433 58.9706,91.4776 C58.0102,92.4379 58.9706,94.1186 60.1711,94.1186 L76.2577,94.1186 C78.4185,94.1186 80.0992,92.9181 81.0596,91.2375 C86.3418,80.6731 103.869,45.1385 106.99,37.2153 C106.99,36.9752 107.23,36.7351 107.23,36.7351 C114.914,19.9282 119.235,1.44059 119.235,-18.2475 C119.956,-22.0891 119.715,-26.1707 119.475,-30.2524 Z " fill="#830ebf" fill-opacity="1.00" />				<path d="M109.151,-39.8564 C112.272,-39.1361 115.394,-39.1361 118.035,-39.8564 C117.315,-44.6583 116.114,-49.2202 114.914,-53.7821 L114.193,-55.2227 C109.631,-66.0271 101.228,-73.4702 90.6636,-78.7523 C87.7824,-75.8711 86.3418,-71.7895 86.5819,-66.7474 C86.822,-60.985 89.223,-54.7425 93.5447,-49.7004 C98.1066,-44.6583 103.629,-41.0569 109.151,-39.8564 Z " fill="#830ebf" fill-opacity="1.00" />				<path d="M107.816,17.3146 C119.134,15.3515 124.359,-25.7141 118.333,-46.4034 C112.308,-67.0926 90.5423,-89.4709 69.853,-83.4453 C49.1637,-77.4197 21.8494,-53.3867 28.4255,-30.8076 C35.0015,-8.22842 96.4985,19.2778 107.816,17.3146 Z " fill="#830ebf" fill-opacity="1.00" />				<path d="M19.4584,-64.7132 C18.2862,-74.8699 -19.1849,-73.9202 -42.9359,-67.0816 C-66.6869,-60.243 -97.7828,-24.8578 -93.4746,-6.16753 C-89.1663,12.5227 -53.7912,18.6061 -33.3937,13.9043 C-12.9961,9.20251 20.6306,-54.5565 19.4584,-64.7132 Z " fill="#830ebf" fill-opacity="1.00" />				<path d="M63.8927,-52.1805 C62.7206,-62.3371 25.2494,-61.3874 1.49843,-54.5488 C-22.2526,-47.7102 -53.3485,-12.325 -49.0402,6.36524 C-44.732,25.0555 -9.35688,31.1389 11.0407,26.4371 C31.4382,21.7353 65.0649,-42.0238 63.8927,-52.1805 Z " fill="#830ebf" fill-opacity="1.00" />			</g>		</g>	</svg>