<svg xmlns="http://www.w3.org/2000/svg" width="20" height="20" viewBox="0 0 20 20" fill="none">
  <path d="M17.5875 12.4059C17.4371 12.6399 17.2868 12.8571 17.1197 13.0743C16.8691 13.3917 16.6184 13.6758 16.3344 13.9264C15.3319 14.7785 14.0287 15.3131 12.6085 15.3131C11.7731 15.3131 10.9879 15.1293 10.2694 14.8119C10.0021 13.5922 9.65122 11.9715 9.38389 10.7184C9.38389 10.7017 9.38389 10.685 9.36718 10.6683C9.6178 10.8855 9.90184 11.0693 10.2026 11.203C10.6203 11.3868 11.0881 11.5037 11.5893 11.5037C11.6729 11.5037 11.7397 11.5037 11.8233 11.5037C11.8233 11.5037 11.8233 11.5037 11.84 11.5037C11.8901 11.5037 11.9402 11.5037 12.007 11.487C12.241 11.4703 12.4414 11.4202 12.6587 11.3366C12.9928 11.2197 13.3103 11.0192 13.5776 10.7519C14.3127 10.0334 14.5634 9.1646 14.3462 8.16213C14.2793 7.82797 14.129 7.52722 13.9452 7.24319C13.6444 6.8422 13.2768 6.52475 12.8257 6.30754C11.8233 5.85643 10.6036 6.05692 9.8183 6.8422C9.23352 7.42698 8.96619 8.112 9.01631 8.89728V16.466H9.03302C9.03302 17.0006 9.03302 17.552 9.03302 18.0867C9.03302 18.1535 9.01631 18.1869 8.93277 18.1869C7.59614 18.1869 6.2595 18.1869 4.92286 18.1869C4.82262 18.1869 4.82262 18.1535 4.82262 18.0699C4.82262 15.9146 4.80591 13.7593 4.80591 11.604C4.80591 10.7184 4.80591 9.83292 4.80591 8.9474C4.80591 8.79703 4.80591 8.46287 4.80591 8.42945C4.80591 8.26237 4.82262 8.09529 4.83932 7.92821C4.88945 7.51051 4.97299 7.09282 5.10665 6.69182C5.25702 6.20729 5.45752 5.73947 5.72485 5.30506C5.92534 4.9542 6.15925 4.62004 6.42658 4.30259C6.54354 4.16892 6.6772 4.01855 6.79416 3.88489C7.02807 3.66768 7.26198 3.45048 7.52931 3.24998C8.41483 2.58167 9.4006 2.14726 10.4866 1.94676C11.038 1.84652 11.5893 1.8131 12.1574 1.84652C12.9761 1.89664 13.7614 2.08043 14.4965 2.41459C15.6828 2.94924 16.6519 3.73452 17.4037 4.80382C17.4371 4.85395 17.4705 4.90407 17.504 4.9542C17.7546 5.32177 17.9551 5.70605 18.1222 6.10705C18.3728 6.74195 18.5566 7.39356 18.6234 8.06188C18.7236 9.68255 18.3895 11.1194 17.5875 12.4059Z" fill="white" fill-opacity="0.85"/>
  <path d="M6.32893 3.53454C6.31222 3.55125 6.27881 3.58467 6.2621 3.60137C6.14514 3.73504 6.01148 3.88541 5.89453 4.01907C5.6272 4.31982 5.39329 4.65398 5.19279 5.02155C4.94217 5.45596 4.72497 5.92378 4.5746 6.40831C4.47435 6.72576 4.39081 7.05992 4.34068 7.39408C4.00653 6.97638 3.55541 6.70905 3.02076 6.54198C2.50281 6.3916 1.98486 6.32477 1.45021 6.32477C1.36667 6.32477 1.33325 6.30806 1.33325 6.20782C1.33325 4.87118 1.33325 3.53454 1.33325 2.1979C1.33325 2.11436 1.34996 2.09766 1.4335 2.09766C1.93474 2.09766 2.43598 2.13107 2.93722 2.21461C3.30479 2.26474 3.65566 2.34828 4.02323 2.44852C4.39081 2.54877 4.75838 2.66573 5.10925 2.83281C5.47683 2.99989 5.82769 3.16697 6.16185 3.40088C6.21198 3.451 6.27881 3.50113 6.32893 3.53454Z" fill="white" fill-opacity="1"/>
</svg>