<svg width="11" height="18" viewBox="0 0 11 18" fill="none" xmlns="http://www.w3.org/2000/svg">
<g clip-path="url(#clip0_615_1950)">
<path fill-rule="evenodd" clip-rule="evenodd" d="M5.5 1L8.37896 2.41273V10.1297L11 11.4159V14.3011L5.5 17L2.62104 15.5873V13.0149L0 11.7288V3.6989L5.5 1ZM3.13688 13.0149L5.24208 11.9819V16.3074L3.13688 15.2744V13.0149ZM5.75792 16.3074L10.4842 13.9882V11.9819L7.86312 13.2681V8.1234L5.75792 9.15644V16.3074ZM7.86312 7.55739V2.97873L3.13688 5.29794V12.4489L5.24208 11.4159V8.84356L7.86312 7.55739ZM2.87896 4.8585L7.54432 2.56917L5.5 1.566L0.834639 3.85533L2.87896 4.8585ZM0.515835 4.2649V11.4159L2.62104 12.4489V5.29794L0.515835 4.2649ZM10.1654 11.5723L8.37896 12.4489V10.6957L10.1654 11.5723ZM6.41318 4.89271V6.90565L4.58682 7.80186V5.78892L6.41318 4.89271ZM5.10266 6.10179V6.98273L5.89734 6.59277V5.71184L5.10266 6.10179Z" fill="#92D5F6" stroke="#92D5F6" stroke-width="0.5" stroke-miterlimit="10"/>
</g>
<defs>
<clipPath id="clip0_615_1950">
<rect width="11" height="18" fill="white"/>
</clipPath>
</defs>
</svg>
