<svg width="76" height="69" viewBox="0 0 76 69" fill="none" xmlns="http://www.w3.org/2000/svg">
<rect x="2.84375" y="0.517578" width="72.6562" height="67.9688" rx="5.04261" fill="url(#paint0_angular_115_1780)" fill-opacity="0.62"/>
<path d="M39 8C24.1119 8 12 20.1119 12 35C12 49.8881 24.1119 62 39 62C53.8881 62 66 49.8881 66 35C66 20.1119 53.8881 8 39 8ZM62.7695 36.5882C62.4138 41.9644 60.2681 46.8578 56.9232 50.6775L54.498 48.2522L52.2522 50.498L54.6775 52.9232C50.8578 56.2681 45.9644 58.4138 40.5882 58.7695V55.3294H37.4118V58.7695C32.0356 58.4138 27.1422 56.2681 23.3225 52.9232L25.7478 50.498L23.502 48.2522L21.0768 50.6775C17.7319 46.8578 15.5862 41.9644 15.2305 36.5882H18.6706V33.4118H15.2305C15.5862 28.0356 17.7319 23.1422 21.0768 19.3225L23.502 21.7478L25.7478 19.502L23.3225 17.0768C27.1422 13.7319 32.0356 11.5862 37.4118 11.2305V14.6706H40.5882V11.2305C45.9644 11.5862 50.8578 13.7319 54.6775 17.0768L52.2522 19.502L54.498 21.7478L56.9232 19.3225C60.2681 23.1422 62.4138 28.0356 62.7695 33.4118H59.3294V36.5882H62.7695Z" fill="white"/>
<path d="M50.0625 37.8727L52.2031 37.4894L50.2633 35.3179L51.9435 34.3793L49.8183 32.7948L51.185 29.5088H48.1948L48.9804 26.2817L45.7768 27.925L46.6552 23.671L43.4185 26.3405L43.075 22.2336L40.6276 25.9286L39.1012 21L37.5763 25.9286L35.1296 22.2321L34.7868 26.339L31.5502 23.6695L32.4255 27.9236L29.2212 26.2817L30.0076 29.5088H27.0188L28.3856 32.7948L26.2604 34.3793L27.9398 35.3179L26 37.4894L28.1406 37.8727L26.6694 40.668L28.5673 41.3764L28.0259 43.1757L29.5648 42.8366L29.7185 45.0544L30.9977 44.4027L31.114 46.4366L32.132 46.0975C32.132 46.0975 33.935 47.9689 37.5572 47.017C37.7659 46.9645 37.9599 46.865 38.1242 46.726C38.2886 46.5871 38.4189 46.4123 38.5054 46.2152C38.6937 45.7738 38.6311 45.2324 37.4225 45.0338C35.2929 44.6837 32.3468 45.0941 31.278 42.4209C31.2704 42.4022 31.2689 42.3815 31.2735 42.3618C31.2782 42.3421 31.2888 42.3244 31.304 42.311C31.3191 42.2976 31.3381 42.2892 31.3582 42.287C31.3783 42.2849 31.3986 42.289 31.4163 42.2988C32.7308 43.0425 35.8101 43.7141 36.0668 42.3084C36.3405 40.8099 35.0252 40.3149 34.2815 39.9051C33.5378 39.4954 30.1621 38.4008 30.3166 36.3875C30.471 34.3741 32.6705 34.9126 33.1685 35.3135C33.6172 35.6077 38.053 38.3354 38.053 38.3354C38.053 38.3354 36.4449 40.4686 39.1012 40.4686C41.7575 40.4686 40.1509 38.3354 40.1509 38.3354C40.1509 38.3354 44.5852 35.6062 45.0354 35.3135C45.5334 34.9126 47.7314 34.3756 47.8873 36.3875C48.0433 38.3994 44.6639 39.4917 43.9209 39.9051C43.1779 40.3186 41.8612 40.8099 42.1363 42.3084C42.3938 43.7134 45.4708 43.044 46.7861 42.2988C46.8039 42.2888 46.8243 42.2846 46.8445 42.2868C46.8648 42.289 46.8838 42.2974 46.899 42.311C46.9143 42.3245 46.9249 42.3424 46.9294 42.3623C46.934 42.3821 46.9322 42.4029 46.9244 42.4217C45.857 45.0941 42.9094 44.6837 40.7799 45.0338C39.572 45.2324 39.5087 45.7694 39.6978 46.2152C39.7839 46.4123 39.914 46.587 40.0781 46.7259C40.2422 46.8649 40.436 46.9645 40.6445 47.017C44.2681 47.9689 46.0718 46.0975 46.0718 46.0975L47.0899 46.4366L47.2061 44.4027L48.4846 45.0544L48.6391 42.8373L50.178 43.1764L49.6366 41.3764L51.5315 40.6724L50.0625 37.8727ZM36.2676 35.0266C35.9794 35.0266 35.6977 34.9411 35.458 34.781C35.2184 34.6209 35.0316 34.3933 34.9213 34.127C34.811 33.8607 34.7822 33.5677 34.8384 33.2851C34.8946 33.0024 35.0334 32.7427 35.2372 32.5389C35.441 32.3351 35.7007 32.1963 35.9833 32.1401C36.266 32.0839 36.559 32.1127 36.8253 32.223C37.0916 32.3333 37.3192 32.5201 37.4793 32.7598C37.6394 32.9994 37.7249 33.2811 37.7249 33.5693C37.7249 33.9558 37.5713 34.3265 37.2981 34.5998C37.0248 34.8731 36.6541 35.0266 36.2676 35.0266ZM41.9355 35.0266C41.6473 35.0266 41.3655 34.9411 41.1259 34.781C40.8863 34.6209 40.6995 34.3933 40.5892 34.127C40.4789 33.8607 40.45 33.5677 40.5063 33.2851C40.5625 33.0024 40.7013 32.7427 40.9051 32.5389C41.1089 32.3351 41.3685 32.1963 41.6512 32.1401C41.9339 32.0839 42.2269 32.1127 42.4932 32.223C42.7594 32.3333 42.987 32.5201 43.1471 32.7598C43.3073 32.9994 43.3927 33.2811 43.3927 33.5693C43.3928 33.7607 43.3552 33.9503 43.282 34.1271C43.2088 34.304 43.1015 34.4647 42.9661 34.6C42.8308 34.7353 42.6701 34.8427 42.4933 34.9159C42.3164 34.9891 42.1269 35.0267 41.9355 35.0266Z" fill="white"/>
<rect x="0.5" y="13.4082" width="7.61719" height="7.03125" fill="white"/>
<rect x="0.5" y="48.5645" width="7.61719" height="7.61719" fill="white"/>
<defs>
<radialGradient id="paint0_angular_115_1780" cx="0" cy="0" r="1" gradientUnits="userSpaceOnUse" gradientTransform="translate(39.2241 68.8262) rotate(98.3523) scale(45.3403 60.0641)">
<stop stop-color="#FE79B9"/>
<stop offset="0.416667" stop-color="#AD00FF"/>
<stop offset="1" stop-color="#2489FF"/>
</radialGradient>
</defs>
</svg>
