<svg width="36" height="24" viewBox="0 0 36 24" fill="none" xmlns="http://www.w3.org/2000/svg">
<g clip-path="url(#clip0_3175_288)">
<path d="M0 3C0 1.34315 1.34315 0 3 0H33C34.6569 0 36 1.34315 36 3V21C36 22.6569 34.6569 24 33 24H3C1.34315 24 0 22.6569 0 21V3Z" fill="#D8E3F3"/>
<path d="M30.9824 7.52637H29.0964C28.5263 7.52637 28.0877 7.70181 27.8245 8.27198L24.228 16.4737H26.7719C26.7719 16.4737 27.2105 15.3772 27.2982 15.1141C27.5614 15.1141 30.0614 15.1141 30.4122 15.1141C30.5 15.4211 30.7193 16.4299 30.7193 16.4299H33L30.9824 7.52637ZM28 13.272C28.2193 12.7457 28.9649 10.772 28.9649 10.772C28.9649 10.8158 29.1842 10.2457 29.2719 9.93865L29.4473 10.7281C29.4473 10.7281 29.9298 12.8772 30.0175 13.3158H28V13.272Z" fill="#3362AB"/>
<path d="M24.4034 13.5349C24.4034 15.377 22.7367 16.6051 20.149 16.6051C19.0525 16.6051 17.9999 16.3858 17.4297 16.1226L17.7806 14.1051L18.0876 14.2366C18.8771 14.5875 19.4034 14.7191 20.3683 14.7191C21.07 14.7191 21.8157 14.4559 21.8157 13.8419C21.8157 13.4472 21.5086 13.184 20.5437 12.7454C19.6227 12.3068 18.3946 11.6051 18.3946 10.3331C18.3946 8.57874 20.1051 7.39453 22.5174 7.39453C23.4385 7.39453 24.2279 7.56997 24.7104 7.78927L24.3595 9.71909L24.1841 9.54365C23.7455 9.36822 23.1753 9.19278 22.342 9.19278C21.4209 9.23664 20.9823 9.63137 20.9823 9.98225C20.9823 10.377 21.5086 10.684 22.342 11.0787C23.7455 11.7366 24.4034 12.4823 24.4034 13.5349Z" fill="#3362AB"/>
<path d="M3 7.61392L3.04386 7.43848H6.81579C7.3421 7.43848 7.73684 7.61392 7.86842 8.18409L8.70175 12.1315C7.86842 10.0262 5.9386 8.31567 3 7.61392Z" fill="#F9B50B"/>
<path d="M14.0086 7.52628L10.1928 16.4298H7.60509L5.41211 8.97365C6.99106 9.98242 8.30685 11.5614 8.7893 12.6579L9.05246 13.5789L11.4209 7.48242H14.0086V7.52628Z" fill="#3362AB"/>
<path d="M15.0175 7.48242H17.4298L15.8947 16.4298H13.4824L15.0175 7.48242Z" fill="#3362AB"/>
</g>
<defs>
<clipPath id="clip0_3175_288">
<rect width="36" height="24" fill="white"/>
</clipPath>
</defs>
</svg>
