<svg width="100" height="100" viewBox="0 0 100 100" fill="none" xmlns="http://www.w3.org/2000/svg">
<path fill-rule="evenodd" clip-rule="evenodd" d="M15.7546 27.7836C15.1894 27.4826 15.1667 26.6808 15.714 26.3483L48.3026 6.54832C48.9616 6.14796 49.7886 6.14796 50.4476 6.54832L82.9014 26.2664C83.4494 26.5994 83.4258 27.4024 82.8592 27.7026L74.5599 32.0996C73.917 32.4402 73.1422 32.4174 72.5204 32.0396L50.4478 18.6289C49.7888 18.2285 48.9618 18.2285 48.3028 18.6289L26.075 32.1339C25.4518 32.5125 24.6752 32.5345 24.0316 32.1918L15.7546 27.7836ZM76.2229 76.3664C76.7618 76.683 76.7675 77.4602 76.2334 77.7848L50.4476 93.4519C49.7886 93.8523 48.9615 93.8523 48.3025 93.4519L22.5087 77.7797C21.9798 77.4583 21.979 76.6909 22.5073 76.3684L30.194 71.6766C30.8535 71.274 31.6824 71.2732 32.3427 71.6744L48.3027 81.3715C48.9617 81.7719 49.7888 81.7719 50.4478 81.3715L66.2522 71.7689C66.9018 71.3742 67.7156 71.3682 68.371 71.7532L76.2229 76.3664ZM39.5774 67.7273C39.0739 68.0528 39.0739 68.7894 39.5774 69.1149L48.5228 74.8983C49.0006 75.2072 49.6151 75.2072 50.0928 74.8983L59.0383 69.1149C59.5418 68.7894 59.5418 68.0528 59.0383 67.7273L50.0928 61.9439C49.6151 61.6351 49.0006 61.6351 48.5228 61.9439L39.5774 67.7273Z" fill="url(#paint0_linear_421_238)"/>
<path fill-rule="evenodd" clip-rule="evenodd" d="M85.4941 32.1839C86.0444 31.8911 86.7084 32.2899 86.7084 32.9133V69.1052C86.7084 70.5434 85.9604 71.8781 84.7337 72.6288L84.5002 72.7717C83.1884 73.5745 81.5392 73.582 80.22 72.7913L78.2806 71.6287L77.1886 71.0043L73.4893 68.7567L72.3419 68.0689L72.3496 68.0642L50.4468 54.7564C49.7879 54.356 48.9608 54.356 48.3018 54.7564L26.3978 68.065L26.4103 68.0726L18.6288 72.8135C17.3104 73.6167 15.654 73.6178 14.3345 72.8161L14.0276 72.6296C12.7945 71.8804 12.0416 70.5421 12.0416 69.0992V33.1015C12.0416 32.4784 12.7051 32.0795 13.2554 32.3719L21.2688 36.6288C21.9435 36.9872 22.3652 37.6889 22.3652 38.4529V58.4347L48.3018 42.676C48.9608 42.2756 49.7879 42.2756 50.4468 42.676L76.3852 58.4358V38.271C76.3852 37.5075 76.8064 36.8062 77.4805 36.4476L85.4941 32.1839Z" fill="#233562"/>
<defs>
<linearGradient id="paint0_linear_421_238" x1="14.1396" y1="85.0361" x2="78.7773" y2="93.1586" gradientUnits="userSpaceOnUse">
<stop stop-color="#7398FF"/>
<stop offset="1" stop-color="#4D6DFA"/>
</linearGradient>
</defs>
</svg>
