<svg width="1040" height="1040" viewBox="0 0 1040 1040" fill="none" xmlns="http://www.w3.org/2000/svg">
<path d="M151.5 476.667V230.639L520 66.8612L888.5 230.639V476.667C888.5 706.299 730.588 920.289 520 974.501C309.412 920.289 151.5 706.299 151.5 476.667Z" fill="white" stroke="#222326" stroke-width="43"/>
<path d="M520.5 929V112L855 260.545V483.364C855 689.47 712.28 882.208 520.5 929Z" fill="#222326"/>
<g clip-path="url(#clip0)">
<path d="M520 781.678C664.245 781.678 781.179 664.745 781.179 520.499C781.179 376.254 664.245 259.32 520 259.32C375.755 259.32 258.821 376.254 258.821 520.499C258.821 664.745 375.755 781.678 520 781.678Z" stroke="white" stroke-width="62"/>
<path d="M568.091 618.668L566.92 617.496C565.209 615.785 564.545 613.46 564.14 612.041L564.125 611.991C564.065 611.78 564.008 611.576 563.951 611.376C563.547 609.946 563.215 608.769 562.617 607.573L562.195 606.728V605.784C562.195 604.853 562.013 603.867 561.713 602.597C561.661 602.636 561.609 602.675 561.557 602.714L561.488 602.766C559.694 604.111 558.135 605.287 556.586 606.835C556.586 606.835 556.586 606.836 556.586 606.836M568.091 618.668L541.321 611.114C542.16 610.694 543.098 610.275 544.089 609.832C547.293 608.399 551.044 606.722 553.758 604.007L556.586 606.836M568.091 618.668H569.748M568.091 618.668H569.748M556.586 606.836C554.364 609.058 551.7 610.619 549.328 611.805C548.131 612.403 546.949 612.934 545.897 613.405L545.756 613.468C544.734 613.925 543.869 614.312 543.11 614.692L542.855 614.819L542.586 614.909C541.054 615.419 539.583 615.97 538.056 616.541C534.814 617.754 531.317 619.062 526.444 620.289C520.514 622.223 512.966 622.222 507.866 622.221L507.563 622.221C496.405 622.221 487.016 620.351 477.65 616.605L477.649 616.605C468.577 612.975 461.123 609.268 453.638 603.654L453.637 603.654C445.772 597.754 441.854 589.917 438.379 582.966L438.246 582.699L441.824 580.91L438.246 582.699C434.358 574.923 432.494 565.4 432.494 556.035C432.494 533.603 441.865 514.541 459.028 503.04C476.096 489.831 502.049 484.52 534.214 484.52H560.418M556.586 606.836L560.418 484.52M560.418 484.52V476.083C560.418 466.61 557.368 460.562 552.904 456.014C546.528 451.297 538.54 448.101 527.107 448.101C516.814 448.101 511.039 449.835 506.838 454.037C504.503 456.372 503.069 458.577 502.19 460.862C501.305 463.164 500.902 465.757 500.902 468.976V472.976H496.902H443.601H439.601V468.976C439.601 459.611 441.465 450.088 445.353 442.312L445.353 442.312C449.171 434.677 454.874 427.118 464.199 419.658L464.248 419.619L464.298 419.581C471.656 414.063 480.918 408.494 492.084 404.772L560.418 484.52ZM569.748 618.668H624.827H628.827V614.668V611.114V610.17M569.748 618.668L628.827 610.17M614.327 444.392L614.327 444.393C617.943 453.434 621.72 464.658 621.72 477.859V566.696C621.72 577.533 621.747 585.853 623.377 592.377L614.327 444.392ZM614.327 444.392C610.495 434.813 602.941 425.369 595.296 419.619M614.327 444.392L595.296 419.619M628.827 610.17L628.404 609.325M628.827 610.17L628.404 609.325M628.404 609.325C627.697 607.91 626.892 605.559 626.008 602.465M628.404 609.325L626.008 602.465M595.296 419.619C585.867 412.089 576.455 408.362 565.683 404.772L595.296 419.619ZM626.008 602.465C625.142 599.432 624.27 595.947 623.377 592.377L626.008 602.465ZM531.173 571.784L530.903 571.874L498.679 529.384L501.507 532.213C501.508 532.213 501.508 532.212 501.508 532.212C504.264 529.457 508.582 527.931 514.157 526.073L514.158 526.073C518.729 524.549 525.068 524.501 534.214 524.501H556.865V554.378C554.982 556.261 552.371 558.872 550.93 560.313L550.47 560.772L550.18 561.353C549.101 563.512 546.896 564.767 543.086 566.671L543.085 566.671C539.557 568.436 536.217 570.104 531.173 571.784ZM530.66 399.237C516.125 399.237 503.244 401.052 492.084 404.772H565.683C554.603 401.079 543.515 399.237 530.66 399.237Z" fill="white" stroke="white" stroke-width="8"/>
</g>
<path d="M520.5 781.678C664.745 781.678 781.679 664.745 781.679 520.499C781.679 376.254 664.745 259.32 520.5 259.32C376.255 259.32 259.321 376.254 259.321 520.499C259.321 664.745 376.255 781.678 520.5 781.678Z" stroke="#222326" stroke-width="42"/>
<path d="M570.248 614.668C568.472 612.891 568.472 609.337 566.695 605.784C566.695 602.23 564.918 598.677 564.918 595.124C561.365 598.677 557.811 600.454 554.258 604.007C550.704 607.561 545.374 609.337 541.821 611.114C536.491 612.891 532.937 614.668 525.83 616.444C520.5 618.221 513.393 618.221 508.063 618.221C497.402 618.221 488.519 616.444 479.635 612.891C470.752 609.337 463.645 605.784 456.538 600.454C449.431 595.123 445.877 588.017 442.324 580.91C438.77 573.803 436.994 564.919 436.994 556.035C436.994 534.715 445.877 516.947 461.868 506.287C477.858 493.85 502.733 488.52 534.714 488.52H564.918V476.083C564.918 465.422 561.365 458.315 556.035 452.985C548.928 447.655 540.044 444.101 527.607 444.101C516.946 444.101 509.84 445.878 504.509 451.208C499.179 456.539 497.402 461.869 497.402 468.976H444.101C444.101 460.092 445.877 451.208 449.431 444.101C452.984 436.995 458.314 429.888 467.198 422.781C474.305 417.451 483.189 412.12 493.849 408.567C504.509 405.013 516.946 403.237 531.16 403.237C543.597 403.237 554.258 405.013 564.918 408.567C575.579 412.12 584.462 415.674 593.346 422.781C600.453 428.111 607.56 436.995 611.113 445.878C614.667 454.762 618.22 465.422 618.22 477.859V566.696C618.22 577.356 618.22 586.24 619.997 593.347C621.774 600.454 623.55 607.561 625.327 611.114V614.668H570.248ZM518.723 577.356C524.053 577.356 529.384 577.356 532.937 575.579C538.267 573.803 541.821 572.026 545.374 570.249C548.928 568.473 552.481 566.696 554.258 563.142C556.035 561.366 559.588 557.812 561.365 556.035V520.501H534.714C525.83 520.501 518.723 520.501 513.393 522.278C508.063 524.054 502.733 525.831 499.179 529.384C495.626 532.938 492.072 534.715 490.296 540.045C488.519 543.598 488.519 548.929 488.519 552.482C488.519 559.589 490.296 564.919 495.626 570.249C500.956 575.579 509.84 577.356 518.723 577.356Z" fill="#222326"/>
<defs>
<clipPath id="clip0">
<rect width="373" height="711" fill="white" transform="translate(520.5 133)"/>
</clipPath>
</defs>
</svg>
