<svg width="76" height="76" viewBox="0 0 76 76" fill="none" xmlns="http://www.w3.org/2000/svg">
<path d="M61.75 21.375H14.25C10.315 21.375 7.125 24.565 7.125 28.5V57C7.125 60.935 10.315 64.125 14.25 64.125H61.75C65.685 64.125 68.875 60.935 68.875 57V28.5C68.875 24.565 65.685 21.375 61.75 21.375Z" stroke="currentColor" stroke-width="4" stroke-linejoin="round"/>
<path d="M61.0612 21.3751V16.9219C61.0609 15.8297 60.8195 14.7511 60.3543 13.7629C59.889 12.7748 59.2115 11.9015 58.3699 11.2053C57.5283 10.5092 56.5434 10.0074 55.4855 9.73572C54.4277 9.46404 53.3229 9.42919 52.25 9.63365L13.1575 16.3059C11.4599 16.6294 9.92832 17.5352 8.82705 18.8671C7.72579 20.199 7.12383 21.8734 7.125 23.6016V30.8751" stroke="currentColor" stroke-width="4" stroke-linejoin="round"/>
<path d="M54.625 47.5C53.6855 47.5 52.7672 47.2214 51.986 46.6995C51.2049 46.1776 50.5961 45.4357 50.2366 44.5678C49.8771 43.6998 49.783 42.7447 49.9663 41.8233C50.1496 40.9019 50.6019 40.0555 51.2662 39.3912C51.9305 38.7269 52.7769 38.2746 53.6983 38.0913C54.6197 37.908 55.5748 38.0021 56.4428 38.3616C57.3107 38.7211 58.0526 39.3299 58.5745 40.111C59.0964 40.8922 59.375 41.8105 59.375 42.75C59.375 44.0098 58.8746 45.218 57.9838 46.1088C57.093 46.9996 55.8848 47.5 54.625 47.5Z" fill="currentColor"/>
</svg>
